<svg width="23" height="308" viewBox="0 0 23 308" fill="none" xmlns="http://www.w3.org/2000/svg">
<path d="M11.5 0.839746L2.83975 9.5L11.5 18.1603L20.1603 9.5L11.5 0.839746ZM10.4393 307.561C11.0251 308.146 11.9749 308.146 12.5607 307.561L22.1066 298.015C22.6924 297.429 22.6924 296.479 22.1066 295.893C21.5208 295.308 20.5711 295.308 19.9853 295.893L11.5 304.379L3.01472 295.893C2.42893 295.308 1.47919 295.308 0.893398 295.893C0.307611 296.479 0.307611 297.429 0.893398 298.015L10.4393 307.561ZM10 9.5V306.5H13V9.5H10Z" fill="url(#paint0_linear_279_214)"/>
<defs>
<linearGradient id="paint0_linear_279_214" x1="11.5" y1="9.54998" x2="-103.64" y2="252.104" gradientUnits="userSpaceOnUse">
<stop stop-color="#FD2121"/>
<stop stop-color="#FD2121"/>
<stop offset="1" stop-color="#89121C"/>
</linearGradient>
</defs>
</svg>
