<svg width="21" height="20" viewBox="0 0 21 20" fill="none" xmlns="http://www.w3.org/2000/svg">
<path opacity="0.2" d="M10.5 20C16.0228 20 20.5 15.5228 20.5 10C20.5 4.47715 16.0228 0 10.5 0C4.97715 0 0.5 4.47715 0.5 10C0.5 15.5228 4.97715 20 10.5 20Z" fill="#F3BA2F"/>
<path fill-rule="evenodd" clip-rule="evenodd" d="M8.40923 9.14058L10.5009 7.04985L12.5934 9.14228L13.8098 7.9251L10.5009 4.61548L7.19201 7.92425L8.40923 9.14058ZM5.11523 10.0003L6.33201 8.78354L7.54879 10.0003L6.33201 11.217L5.11523 10.0003ZM10.5009 12.9512L8.40923 10.8596L7.19031 12.0751L7.19201 12.0768L10.5009 15.3847L13.8098 12.0751L13.8106 12.0742L12.5934 10.8588L10.5009 12.9512ZM13.4509 10.0006L14.6677 8.78384L15.8845 10.0006L14.6677 11.2173L13.4509 10.0006ZM10.5009 8.76462L11.7351 9.99967H11.736L11.7351 10.0005L10.5009 11.2356L9.26665 10.0022L9.26494 9.99967L9.26665 9.99797L9.4827 9.78192L9.58818 9.6773L10.5009 8.76462Z" fill="#F3BA2F"/>
</svg>
