<svg width="28" height="24" viewBox="0 0 28 24" fill="none" xmlns="http://www.w3.org/2000/svg">
<path d="M23.7032 1.98947C21.9186 1.06863 20.0048 0.390197 18.0039 0.00162999C17.9674 -0.00586923 17.931 0.0128717 17.9123 0.0503545C17.6661 0.54262 17.3935 1.18482 17.2026 1.68959C15.0505 1.32727 12.9094 1.32727 10.8014 1.68959C10.6104 1.1736 10.3279 0.54262 10.0807 0.0503545C10.0619 0.0141223 10.0255 -0.00461862 9.98906 0.00162999C7.98923 0.388955 6.07549 1.06739 4.28976 1.98947C4.2743 1.99696 4.26105 2.00947 4.25225 2.0257C0.62229 8.12415 -0.372109 14.0727 0.11571 19.9475C0.117917 19.9762 0.132265 20.0037 0.152131 20.0212C2.54708 21.999 4.86699 23.1998 7.14383 23.9956C7.18026 24.0081 7.21887 23.9931 7.24206 23.9594C7.78065 23.1323 8.26075 22.2602 8.67239 21.3431C8.69668 21.2894 8.67349 21.2257 8.62384 21.2044C7.86232 20.8796 7.1372 20.4835 6.43968 20.0337C6.38451 19.9975 6.3801 19.9087 6.43085 19.8663C6.57763 19.7426 6.72446 19.6139 6.86461 19.4839C6.88997 19.4602 6.92531 19.4552 6.95512 19.4702C11.5375 21.8229 16.4985 21.8229 21.0268 19.4702C21.0566 19.454 21.0919 19.459 21.1184 19.4827C21.2586 19.6126 21.4054 19.7426 21.5533 19.8663C21.604 19.9087 21.6007 19.9975 21.5455 20.0337C20.848 20.4922 20.1229 20.8796 19.3603 21.2032C19.3106 21.2244 19.2885 21.2894 19.3128 21.3431C19.7333 22.2589 20.2134 23.131 20.742 23.9582C20.7641 23.9931 20.8038 24.0081 20.8403 23.9956C23.1282 23.1998 25.4481 21.999 27.843 20.0212C27.864 20.0037 27.8772 19.9775 27.8794 19.9488C28.4633 13.1568 26.9016 7.25706 23.7396 2.02694C23.7319 2.00947 23.7186 1.99696 23.7032 1.98947ZM9.35669 16.3704C7.97708 16.3704 6.84032 14.946 6.84032 13.1968C6.84032 11.4476 7.95504 10.0233 9.35669 10.0233C10.7694 10.0233 11.8951 11.4601 11.873 13.1968C11.873 14.946 10.7583 16.3704 9.35669 16.3704ZM18.6605 16.3704C17.281 16.3704 16.1442 14.946 16.1442 13.1968C16.1442 11.4476 17.2589 10.0233 18.6605 10.0233C20.0732 10.0233 21.199 11.4601 21.1769 13.1968C21.1769 14.946 20.0732 16.3704 18.6605 16.3704Z" fill="#6E7191"/>
</svg>
