<svg width="28" height="23" viewBox="0 0 28 23" fill="none" xmlns="http://www.w3.org/2000/svg">
<path d="M21.602 0.0266664C19.2469 -0.033333 16.8711 0.0266664 14.516 0.0266664C11.8558 0.0266664 9.19309 -0.033333 6.54592 0.0266664C5.67889 0.0270133 4.82063 0.197333 4.02133 0.527667C3.22202 0.858001 2.49772 1.34172 1.89077 1.95053C1.28382 2.55935 0.806408 3.28105 0.486446 4.07342C0.166484 4.86579 0.0103958 5.71294 0.0273085 6.56533C-0.00255166 9.45041 0.0273085 12.3253 0.0273085 15.2104C-0.0546972 16.3569 0.0482732 17.509 0.332402 18.6239C0.684156 19.6721 1.30879 20.6116 2.14421 21.3488C2.97964 22.0861 3.99675 22.5955 5.09445 22.8265C6.10541 22.9778 7.12973 23.0244 8.15058 22.9656H21.611C22.739 22.954 23.8444 22.6536 24.8184 22.0939C25.7923 21.5343 26.6011 20.7348 27.165 19.7741C27.7831 18.5633 28.0665 17.2139 27.9868 15.8614V7.00447C27.9868 3.27047 25.6214 0.136453 21.6007 0.0266664H21.602ZM25.7019 16.6682C25.6935 17.7354 25.2608 18.7569 24.4963 19.5144C23.7318 20.2718 22.6962 20.7051 21.611 20.7214H7.53001C6.80645 20.7688 6.07968 20.7259 5.36709 20.5937C4.48606 20.3562 3.7092 19.8398 3.15673 19.1245C2.60427 18.4091 2.30701 17.5346 2.31096 16.6363C2.24995 14.2504 2.31096 11.844 2.31096 9.45807C2.31096 6.9049 1.89422 3.7377 4.88933 2.56451C6.65627 1.87516 9.19439 2.27473 11.0418 2.27473H19.6922C20.3219 2.27473 20.9619 2.25431 21.5903 2.27473C22.5545 2.28034 23.4866 2.6164 24.2259 3.22504C24.9653 3.83368 25.4657 4.6768 25.6409 5.60917C25.7462 6.43688 25.7701 7.27266 25.7123 8.10489H21.6876C20.6848 8.0312 19.6814 8.23881 18.7938 8.70361C17.9942 9.18038 17.3749 9.90096 17.0301 10.7557C16.6853 11.6104 16.6339 12.5525 16.8838 13.4386C17.1337 14.3247 17.6711 15.1062 18.4143 15.6644C19.1575 16.2225 20.0657 16.5265 21.0009 16.5303H25.7019V16.6682ZM19.0119 12.5448V12.5359C19.0119 12.4759 19.0015 12.3163 19.0015 12.3163C18.9999 12.2362 19.0034 12.156 19.0119 12.0763C19.0136 12.0561 19.0171 12.036 19.0223 12.0163C19.0642 11.7332 19.1717 11.4632 19.3365 11.2274C19.3576 11.2002 19.3747 11.1701 19.3871 11.1381C19.4253 11.0932 19.466 11.0506 19.5091 11.0104C19.6008 10.9071 19.703 10.8134 19.8142 10.7308C19.817 10.7308 19.8196 10.7297 19.8216 10.7278C19.8235 10.7259 19.8246 10.7233 19.8246 10.7206C19.9144 10.6727 20.0011 10.6194 20.0843 10.561C20.1349 10.5406 20.1959 10.5112 20.2466 10.4908C20.2574 10.4854 20.2675 10.4785 20.2764 10.4704H20.2868C20.3076 10.4602 20.3271 10.4602 20.3478 10.45C20.4829 10.4049 20.6227 10.3749 20.7646 10.3606H20.775C20.836 10.3606 20.9983 10.3504 20.9983 10.3504H25.5422V14.2836H20.9983C20.9168 14.2852 20.8352 14.2817 20.7542 14.2733C20.7336 14.2717 20.7132 14.2683 20.6932 14.2631C20.5489 14.2359 20.4066 14.1992 20.2673 14.1533C20.2568 14.1519 20.2466 14.1485 20.2375 14.1431C20.1553 14.0925 20.0683 14.0498 19.9778 14.0155C19.9272 13.9861 19.8869 13.9555 19.8259 13.9159C19.8179 13.9153 19.8105 13.9116 19.8051 13.9057C19.7649 13.8763 19.6753 13.7959 19.6636 13.7857C19.4835 13.6428 19.3381 13.4623 19.2378 13.2572C19.198 13.1971 19.1641 13.1334 19.1365 13.067C19.1365 13.067 19.1365 13.0568 19.1158 13.0274V13.007C19.0642 12.8575 19.0268 12.7037 19.0041 12.5474" fill="white"/>
<g opacity="0.5">
<g opacity="0.5">
<g opacity="0.5">
<path opacity="0.5" d="M22.4105 12.9994C22.2739 13.1335 22.0999 13.2249 21.9106 13.2618C21.7212 13.2988 21.525 13.2797 21.3466 13.207C21.1683 13.1344 21.0158 13.0113 20.9086 12.8535C20.8014 12.6956 20.7441 12.51 20.7441 12.3202C20.7441 12.1304 20.8014 11.9448 20.9086 11.787C21.0158 11.6291 21.1683 11.5061 21.3466 11.4334C21.525 11.3607 21.7212 11.3416 21.9106 11.3786C22.0999 11.4155 22.2739 11.5069 22.4105 11.6411C22.5934 11.8213 22.6962 12.0655 22.6962 12.3202C22.6962 12.5749 22.5934 12.8191 22.4105 12.9994Z" fill="white"/>
</g>
</g>
</g>
<g opacity="0.5">
<g opacity="0.5">
<g opacity="0.5">
<path opacity="0.5" d="M6.43517 6.73257H15.5088C15.7818 6.72314 16.0404 6.60987 16.2302 6.41662C16.4199 6.22338 16.526 5.96524 16.526 5.69662C16.526 5.428 16.4199 5.16987 16.2302 4.97662C16.0404 4.78337 15.7818 4.6701 15.5088 4.66068H6.43517C6.16216 4.6701 5.90352 4.78337 5.71377 4.97662C5.52402 5.16987 5.41797 5.428 5.41797 5.69662C5.41797 5.96524 5.52402 6.22338 5.71377 6.41662C5.90352 6.60987 6.16216 6.72314 6.43517 6.73257Z" fill="white"/>
</g>
</g>
</g>
</svg>
