<svg width="28" height="27" viewBox="0 0 28 27" fill="none" xmlns="http://www.w3.org/2000/svg">
<path d="M26.3977 4.76974C24.4979 4.64308 22.5664 4.72408 20.6533 4.75501C20.6613 3.76529 20.6613 2.77558 20.6282 1.79028C20.558 -0.336434 18.5418 0.0229275 17.2126 0.0229275H6.10391C5.81215 0.0275285 5.53359 0.15891 5.32777 0.38899C5.12194 0.61907 5.00518 0.929592 5.00244 1.25418V12.1219C5.00655 12.4455 5.12391 12.7545 5.3296 12.9833C5.53528 13.2121 5.81306 13.3427 6.10391 13.3473H12.3553V16.8628C12.359 17.1865 12.4763 17.4958 12.6821 17.7247C12.8878 17.9536 13.1658 18.084 13.4567 18.0882C17.7051 18.0882 21.96 18.1854 26.207 18.0882C26.4709 18.1065 26.7351 18.0593 26.9806 17.95C27.226 17.8408 27.4466 17.6721 27.6262 17.4564C27.9145 17.0281 28.0435 16.4928 27.9863 15.9615V7.55773C27.9863 7.20868 28.0035 6.85227 27.9863 6.50174C27.978 6.03916 27.807 5.59866 27.5099 5.27482C27.2129 4.95099 26.8136 4.76964 26.3977 4.76974ZM18.9561 2.47955C18.9786 2.47955 19.0025 2.47955 19.025 2.47955C19.2222 2.4604 19.1203 2.54435 18.9561 2.47955ZM18.4266 1.79175C18.4266 1.82415 18.4266 1.8595 18.4266 1.89485C18.3604 1.70191 18.4478 1.60029 18.4266 1.79175ZM7.20538 10.8966V2.47955H18.4266V10.8966H7.20538ZM22.0487 15.6375H14.5582V13.3473H19.1547C19.1868 13.3417 19.2186 13.3343 19.25 13.3252C19.3167 13.3235 19.3831 13.3156 19.4486 13.3016C19.5066 13.2854 19.5636 13.2653 19.6194 13.2412C20.5461 12.9172 20.6295 11.8877 20.6295 10.9481V7.7978C20.6295 7.60634 20.6295 7.4134 20.6295 7.22194H25.7807V15.6389H22.0487V15.6375ZM26.1713 7.22341C26.2202 7.22832 26.2693 7.22832 26.3182 7.22341C26.5115 7.19248 26.3487 7.33387 26.1713 7.22341Z" fill="white"/>
<g opacity="0.5">
<g opacity="0.5">
<g opacity="0.5">
<path opacity="0.5" d="M0 1.35009V25.3178C4.3529e-09 25.6428 0.116044 25.9544 0.322602 26.1842C0.529161 26.414 0.809315 26.5431 1.10143 26.5431C1.39355 26.5431 1.67371 26.414 1.88026 26.1842C2.08682 25.9544 2.20287 25.6428 2.20287 25.3178V1.35009C2.20287 1.02511 2.08682 0.713444 1.88026 0.483649C1.67371 0.253853 1.39355 0.124756 1.10143 0.124756C0.809315 0.124756 0.529161 0.253853 0.322602 0.483649C0.116044 0.713444 4.3529e-09 1.02511 0 1.35009" fill="white"/>
</g>
</g>
</g>
</svg>
