<svg width="28" height="27" viewBox="0 0 28 27" fill="none" xmlns="http://www.w3.org/2000/svg">
<path d="M10.4019 5.16472C10.636 4.4762 10.9401 3.81973 11.3083 3.20812C11.6004 2.77207 11.9692 2.40668 12.3922 2.13417C12.8151 1.86166 13.2835 1.68772 13.7687 1.62293C14.2411 1.57567 14.7172 1.6415 15.1648 1.81601C15.6125 1.99052 16.0213 2.26966 16.364 2.63466C16.9381 3.28577 17.3487 4.0931 17.5548 4.97604C17.8365 5.95805 19.2316 5.53761 18.9472 4.54817C18.6701 3.37599 18.1171 2.30724 17.3452 1.45208C16.8843 0.967491 16.3413 0.589847 15.7479 0.341158C15.1545 0.0924694 14.5225 -0.0222888 13.8889 0.00357227C12.5845 0.0875623 11.3616 0.736568 10.482 1.81161C9.91915 2.5736 9.47101 3.43204 9.15496 4.35355C9.06382 4.53895 9.03987 4.75613 9.08803 4.96055C9.13619 5.16497 9.2528 5.34114 9.41395 5.45293C9.57963 5.55889 9.77613 5.58806 9.96098 5.53413C10.1458 5.4802 10.3042 5.34751 10.4019 5.16472Z" fill="white"/>
<path d="M21.3703 24.0048H9.19232C7.2472 24.0048 5.02974 24.302 3.45175 22.7317C1.63346 20.9089 2.73218 18.3626 3.19543 16.1208C3.64043 13.9836 4.07832 11.8463 4.50909 9.70905C5.16191 6.47047 7.98012 6.27734 10.4032 6.27734H17.7938C20.285 6.27734 22.9003 6.63834 23.5344 9.8888C24.0217 12.4143 24.5744 14.922 25.0937 17.4356C25.3342 18.318 25.5172 19.2186 25.641 20.1304C25.8066 22.6559 23.222 23.9439 21.369 24.0048C19.8417 24.0539 19.8351 26.7383 21.369 26.6908C24.8828 26.5779 28.6942 23.6275 27.8919 19.1856C27.3726 16.3154 26.7104 13.4705 26.1216 10.6197C25.9711 9.55169 25.715 8.50543 25.358 7.49998C24.8757 6.48668 24.184 5.61536 23.3399 4.95778C22.4957 4.3002 21.5232 3.87517 20.5026 3.71768C18.1758 3.47499 15.8356 3.43327 13.5031 3.59289C11.1094 3.59289 8.23378 3.17396 5.96291 4.2005C5.05544 4.58156 4.24379 5.20023 3.59663 6.00417C2.94946 6.80811 2.48581 7.77367 2.2449 8.81918C2.04064 9.79075 1.86309 10.7727 1.66283 11.7473C1.14485 14.2891 0.47734 16.8443 0.0768356 19.4173C-0.600017 23.8221 3.32493 26.6135 6.73856 26.6967C11.6114 26.8067 16.4949 26.6967 21.369 26.6967C21.6891 26.6967 21.996 26.5552 22.2224 26.3034C22.4487 26.0515 22.5758 25.7099 22.5758 25.3537C22.5758 24.9976 22.4487 24.656 22.2224 24.4041C21.996 24.1523 21.6891 24.0108 21.369 24.0108" fill="white"/>
<path d="M11.4567 10.4638C11.4567 10.7438 11.3821 11.0175 11.2423 11.2503C11.1025 11.4832 10.9038 11.6646 10.6713 11.7718C10.4388 11.8789 10.183 11.907 9.93619 11.8524C9.68939 11.7977 9.46269 11.6629 9.28475 11.4649C9.10682 11.2669 8.98565 11.0146 8.93656 10.74C8.88746 10.4654 8.91266 10.1807 9.00896 9.92201C9.10526 9.66331 9.26833 9.4422 9.47756 9.28663C9.68679 9.13107 9.93277 9.04803 10.1844 9.04803C10.5218 9.04803 10.8455 9.19719 11.0841 9.4627C11.3227 9.72821 11.4567 10.0883 11.4567 10.4638Z" fill="white"/>
<path d="M19.1062 10.4638C19.1062 10.7438 19.0316 11.0175 18.8918 11.2503C18.752 11.4832 18.5533 11.6646 18.3208 11.7718C18.0883 11.8789 17.8324 11.907 17.5856 11.8524C17.3388 11.7977 17.1121 11.6629 16.9342 11.4649C16.7562 11.2669 16.6351 11.0146 16.586 10.74C16.5369 10.4654 16.5621 10.1807 16.6584 9.92201C16.7547 9.66331 16.9178 9.4422 17.127 9.28663C17.3362 9.13107 17.5822 9.04803 17.8339 9.04803C18.1713 9.04803 18.4949 9.19719 18.7335 9.4627C18.9721 9.72821 19.1062 10.0883 19.1062 10.4638Z" fill="white"/>
</svg>
