<svg width="18" height="24" viewBox="0 0 18 24" fill="none" xmlns="http://www.w3.org/2000/svg">
<path d="M9 18.0453C9.44501 18.0453 9.88003 17.913 10.2501 17.6652C10.6201 17.4173 10.9085 17.065 11.0788 16.6528C11.2491 16.2406 11.2936 15.7871 11.2068 15.3495C11.12 14.912 10.9057 14.51 10.591 14.1946C10.2763 13.8791 9.87542 13.6643 9.43896 13.5772C9.00249 13.4902 8.55009 13.5349 8.13895 13.7056C7.72781 13.8763 7.3764 14.1654 7.12917 14.5364C6.88193 14.9073 6.74997 15.3435 6.74997 15.7896C6.75171 16.3873 6.98933 16.9601 7.41091 17.3827C7.8325 17.8054 8.40379 18.0436 9 18.0453ZM15.75 7.89512H14.625V5.63915C14.625 4.14356 14.0323 2.70922 12.9774 1.65167C11.9226 0.594123 10.4918 0 9 0C7.50817 0 6.07744 0.594123 5.02256 1.65167C3.96767 2.70922 3.37505 4.14356 3.37505 5.63915V7.89486H2.25003C1.65389 7.89661 1.08265 8.13477 0.661078 8.55734C0.239503 8.97991 0.00184321 9.55255 0 10.1502V21.4285C0.00174273 22.0262 0.239358 22.5989 0.660944 23.0216C1.08253 23.4442 1.65382 23.6825 2.25003 23.6842H15.75C16.3462 23.6825 16.9175 23.4442 17.3391 23.0216C17.7606 22.5989 17.9983 22.0262 18 21.4285V10.1502C17.9982 9.55255 17.7605 8.97991 17.3389 8.55734C16.9173 8.13477 16.3461 7.89661 15.75 7.89486V7.89512ZM5.51253 5.63915C5.51253 5.18001 5.60273 4.72537 5.77799 4.30119C5.95326 3.877 6.21014 3.49157 6.53398 3.16691C6.85783 2.84225 7.24228 2.58472 7.6654 2.40901C8.08852 2.23331 8.54202 2.14288 9 2.14288C9.45798 2.14288 9.91148 2.23331 10.3346 2.40901C10.7577 2.58472 11.1422 2.84225 11.466 3.16691C11.7899 3.49157 12.0467 3.877 12.222 4.30119C12.3973 4.72537 12.4875 5.18001 12.4875 5.63915V7.89486H5.51253V5.63915ZM15.75 21.4289H2.25003V10.1502H15.75V21.4289Z" fill="white" fill-opacity="0.5"/>
</svg>
