<svg width="28" height="27" viewBox="0 0 28 27" fill="none" xmlns="http://www.w3.org/2000/svg">
<path d="M21.7578 23.472H7.56395C6.8842 23.5158 6.20232 23.4925 5.52624 23.4026C4.61853 23.1981 3.80258 22.6491 3.2175 21.8493C2.63243 21.0494 2.31447 20.0481 2.31782 19.0162C2.24124 16.2496 2.31782 13.4685 2.31782 10.7004C2.31782 7.93238 1.8337 4.44553 4.55281 3.00509C6.28422 2.08674 8.96569 2.5799 10.8061 2.5799H19.6163C20.3198 2.5799 21.0271 2.55242 21.728 2.5799C22.6496 2.58391 23.5416 2.94249 24.2533 3.59498C24.9649 4.24748 25.4524 5.15384 25.6334 6.16075C25.7409 7.25814 25.7618 8.36392 25.6957 9.46537V15.0883C25.6957 16.3899 25.7307 17.6915 25.6957 18.9931C25.7013 20.1663 25.2918 21.2948 24.556 22.134C23.8201 22.9732 22.8171 23.4555 21.7643 23.4764C20.299 23.5313 20.2925 26.0796 21.7643 26.0203C22.9297 26.0049 24.0685 25.631 25.0552 24.9399C26.0419 24.2488 26.838 23.2674 27.3557 22.1039C27.8586 20.7537 28.0719 19.2914 27.9787 17.8332V7.73424C27.9787 3.59226 25.6606 0.167601 21.7488 0.0359949C19.3009 -0.0449936 16.8414 0.0359949 14.3922 0.0359949C11.7263 0.0359949 9.05265 -0.0319776 6.38935 0.0359949C5.53641 0.0354881 4.69209 0.226163 3.90664 0.596676C3.12119 0.967188 2.41064 1.50997 1.81729 2.19271C1.22394 2.87546 0.759894 3.68423 0.452781 4.57089C0.145667 5.45755 0.00175789 6.40399 0.029609 7.35389C0.0114384 10.6802 0.029609 14.0181 0.029609 17.3502C-0.0584708 18.6727 0.0502907 20.0024 0.351491 21.2854C0.717518 22.478 1.36653 23.538 2.22963 24.3529C3.09273 25.1677 4.13772 25.7069 5.25368 25.9133C6.23631 26.0315 7.22574 26.0639 8.2129 26.0102H21.7578C22.0539 25.999 22.3346 25.8602 22.5405 25.6228C22.7464 25.3855 22.8615 25.0683 22.8615 24.7382C22.8615 24.4081 22.7464 24.0909 22.5405 23.8536C22.3346 23.6163 22.0539 23.4774 21.7578 23.4663" fill="white"/>
<g opacity="0.5">
<g opacity="0.5">
<path opacity="0.5" d="M8.89422 10.3823H7.21732C7.06586 10.3823 6.92061 10.4493 6.81351 10.5686C6.70641 10.688 6.64624 10.8498 6.64624 11.0186V19.6453C6.64624 19.8141 6.70641 19.9759 6.81351 20.0953C6.92061 20.2146 7.06586 20.2817 7.21732 20.2817H8.89422C9.04568 20.2817 9.19094 20.2146 9.29804 20.0953C9.40513 19.9759 9.4653 19.8141 9.4653 19.6453V11.0186C9.4653 10.8498 9.40513 10.688 9.29804 10.5686C9.19094 10.4493 9.04568 10.3823 8.89422 10.3823Z" fill="white"/>
</g>
</g>
<g opacity="0.5">
<g opacity="0.5">
<path opacity="0.5" d="M14.8398 6.05954H13.1629C13.0114 6.05954 12.8662 6.12658 12.7591 6.24592C12.652 6.36525 12.5918 6.52711 12.5918 6.69588V19.359C12.5918 19.5277 12.652 19.6896 12.7591 19.8089C12.8662 19.9283 13.0114 19.9953 13.1629 19.9953H14.8398C14.9912 19.9953 15.1365 19.9283 15.2436 19.8089C15.3507 19.6896 15.4109 19.5277 15.4109 19.359V6.69588C15.4109 6.52711 15.3507 6.36525 15.2436 6.24592C15.1365 6.12658 14.9912 6.05954 14.8398 6.05954Z" fill="white"/>
</g>
</g>
<g opacity="0.5">
<g opacity="0.5">
<path opacity="0.5" d="M20.787 15.2488H19.1101C18.9587 15.2488 18.8134 15.3159 18.7063 15.4352C18.5992 15.5545 18.5391 15.7164 18.5391 15.8852V19.8276C18.5391 19.9963 18.5992 20.1582 18.7063 20.2775C18.8134 20.3969 18.9587 20.4639 19.1101 20.4639H20.787C20.9385 20.4639 21.0838 20.3969 21.1908 20.2775C21.2979 20.1582 21.3581 19.9963 21.3581 19.8276V15.8808C21.3581 15.712 21.2979 15.5502 21.1908 15.4309C21.0838 15.3115 20.9385 15.2445 20.787 15.2445" fill="white"/>
</g>
</g>
</svg>
