<svg width="120" height="51" viewBox="0 0 120 51" fill="none" xmlns="http://www.w3.org/2000/svg">
<g clip-path="url(#clip0_168_400)">
<path d="M13.2961 11.4966C13.1786 11.1578 13.8342 10.8529 13.4569 10.4217C12.3005 11.4504 12.2634 11.6875 13.1013 12.8886C13.6022 13.6092 14.1434 14.3053 14.6134 15.0475C14.9658 15.5987 15.5008 16.0576 15.6183 16.7844C15.139 17.4958 14.7772 18.2904 14.1341 18.9371C13.661 18.6476 13.3332 18.2996 13.1106 17.9763C13.157 17.3696 13.6919 17.1109 13.6548 16.535C13.4291 16.2024 13.259 15.7281 12.6561 15.6172C12.6963 16.0207 13.0364 16.2393 12.9282 16.6458C12.8478 16.7752 12.7519 16.96 12.6344 17.1293C12.1428 17.8469 12.1644 18.4875 12.8076 19.1342C13.3611 19.6947 13.8465 20.3261 14.4835 21.0683C15.6152 19.5531 16.4439 18.0379 17.2385 16.498C15.9089 14.8072 14.6195 13.175 13.2961 11.4966ZM20.2595 21.0344C21.0263 22.254 21.9446 22.485 23.8432 21.9368C22.897 20.1444 21.9292 19.9011 20.2595 21.0344ZM30.1541 20.1629C29.8232 20.3507 29.5388 20.5201 29.3996 20.9451C29.6841 21.3147 29.8727 21.8074 30.4076 22.1092C30.5777 21.5703 30.9487 21.1976 30.9889 20.7603C30.788 20.4 30.5282 20.2799 30.1541 20.1629ZM33.005 31.0928C32.974 31.0373 32.8751 31.0219 32.8194 30.9911C32.4824 31.1728 32.1639 31.3668 31.731 31.3915C31.193 31.0527 30.6024 30.7324 30.2809 30.1257C30.3303 29.7716 30.5406 29.4759 30.4324 29.0663C30.0118 28.4996 29.3254 28.1455 28.7781 27.6342C28.203 27.0891 27.566 26.6056 26.9723 26.0821C25.6139 24.8851 24.0586 24.2999 22.3064 24.3266C20.6645 24.3513 19.6751 25.3306 19.6658 26.9536C19.6627 27.3263 19.7153 27.7081 19.6751 28.0777C19.5947 28.8076 19.8637 29.3404 20.4048 29.8332C21.6694 30.9911 22.9403 32.1491 24.1029 33.4087C24.7461 34.1078 25.4356 34.3141 26.3168 34.2556C27.6155 34.1663 28.9327 34.1263 30.1819 34.5051C31.159 34.8038 31.8145 34.5574 32.5195 33.8799C33.6079 32.8359 33.7409 32.4047 33.005 31.0928ZM33.005 31.0928C32.974 31.0373 32.8751 31.0219 32.8194 30.9911C32.4824 31.1728 32.1639 31.3668 31.731 31.3915C31.193 31.0527 30.6024 30.7324 30.2809 30.1257C30.3303 29.7716 30.5406 29.4759 30.4324 29.0663C30.0118 28.4996 29.3254 28.1455 28.7781 27.6342C28.203 27.0891 27.566 26.6056 26.9723 26.0821C25.6139 24.8851 24.0586 24.2999 22.3064 24.3266C20.6645 24.3513 19.6751 25.3306 19.6658 26.9536C19.6627 27.3263 19.7153 27.7081 19.6751 28.0777C19.5947 28.8076 19.8637 29.3404 20.4048 29.8332C21.6694 30.9911 22.9403 32.1491 24.1029 33.4087C24.7461 34.1078 25.4356 34.3141 26.3168 34.2556C27.6155 34.1663 28.9327 34.1263 30.1819 34.5051C31.159 34.8038 31.8145 34.5574 32.5195 33.8799C33.6079 32.8359 33.7409 32.4047 33.005 31.0928ZM30.4076 22.1092C30.5777 21.5703 30.9487 21.1976 30.9889 20.7603C30.788 20.4 30.5282 20.2799 30.1541 20.1629C29.8232 20.3507 29.5388 20.5201 29.3996 20.9451C29.6841 21.3147 29.8727 21.8074 30.4076 22.1092ZM23.8432 21.9368C22.897 20.1444 21.9292 19.9011 20.2595 21.0344C21.0263 22.254 21.9446 22.485 23.8432 21.9368ZM13.4569 10.4217C12.3005 11.4504 12.2634 11.6875 13.1013 12.8886C13.6022 13.6092 14.1434 14.3053 14.6134 15.0475C14.9658 15.5987 15.5008 16.0576 15.6183 16.7844C15.139 17.4958 14.7772 18.2904 14.1341 18.9371C13.661 18.6476 13.3332 18.2996 13.1106 17.9763C13.157 17.3696 13.6919 17.1109 13.6548 16.535C13.4291 16.2024 13.259 15.7281 12.6561 15.6172C12.6963 16.0207 13.0364 16.2393 12.9282 16.6458C12.8478 16.7752 12.7519 16.96 12.6344 17.1293C12.1428 17.8469 12.1644 18.4875 12.8076 19.1342C13.3611 19.6947 13.8465 20.3261 14.4835 21.0683C15.6152 19.5531 16.4439 18.0379 17.2385 16.498C15.9089 14.8072 14.6195 13.175 13.2961 11.4966C13.1786 11.1578 13.8342 10.8529 13.4569 10.4217ZM43.2459 5.73442C43.2706 5.21395 43.0604 4.86286 42.6182 4.60417C40.024 3.08279 37.4359 1.54909 34.8107 0C33.1534 1.69076 31.5022 3.29221 29.2852 4.12373C28.9142 3.48007 29.2512 2.88569 28.9574 2.40833C28.673 2.22971 28.3669 2.34058 28.0855 2.28822C27.0651 2.0942 26.456 2.57772 25.9427 3.40924C25.482 4.15761 25.1975 4.98297 24.8203 5.75906C23.6917 5.95616 22.6187 6.08859 21.521 6.08859C20.547 6.08551 19.6009 5.90072 18.6423 5.80217C18.0672 5.74058 17.6838 5.48804 17.4828 4.84746C17.1798 3.84964 16.6881 2.91341 16.079 2.05725C15.2008 0.809964 14.8298 0.702174 13.1941 1.08714C12.9869 2.66703 12.7581 3.60942 12.6066 3.64638C11.277 2.61467 9.74026 1.17645 8.41994 0.00923913C5.61544 1.65996 2.84804 3.28913 0.0126152 4.96141C-0.0368579 7.00634 0.0868247 8.925 0.0961009 10.8437C0.13939 18.663 0.12393 26.4886 0.0961009 34.3111C0.0930089 35.1241 0.306361 35.7647 0.828921 36.3591C2.15851 37.8743 3.58086 39.2971 5.09288 40.6245C9.8392 44.7913 15.1235 48.142 20.8501 50.8152C21.5087 51.1263 22.0374 51.0123 22.6342 50.7259C26.1529 49.0321 29.5171 47.098 32.7174 44.8591C36.162 42.4507 39.3623 39.7775 42.1791 36.6516C42.915 35.8293 43.283 34.9917 43.2706 33.8491L43.2459 5.73442ZM18.1414 7.04638C20.2997 7.41286 22.4208 7.38514 24.6131 7.17572V10.0614C22.4827 10.6712 20.3522 10.5449 18.1414 9.99982V7.04638ZM41.0412 36.0203C39.3622 37.8404 37.5565 39.5219 35.6332 41.0802C31.3476 44.5572 26.6817 47.4091 21.6262 49.765C18.1445 48.179 14.8051 46.2726 11.6233 44.1014C8.43231 41.9241 5.43919 39.4942 2.79857 36.6639C2.42752 36.2667 2.08121 35.8447 1.72253 35.4382C1.37622 35.0409 1.25872 34.5913 1.25872 34.0554C1.27418 24.9364 1.27109 15.8143 1.27109 6.69221V5.69438C3.59632 4.33315 5.8659 3.00272 8.17258 1.65072C9.49907 2.89801 10.8967 3.94819 12.3407 4.92138C12.2325 5.92536 11.7408 6.71069 11.4069 7.6192C10.3216 7.4529 9.59802 6.71993 8.79099 6.17174C7.72114 5.43877 7.7366 5.39873 6.61418 6.09167C5.90609 6.52591 5.13617 6.85543 4.39407 7.49293C4.39407 8.78025 4.39098 10.1569 4.39407 11.5335C4.39717 18.5614 4.41263 25.5924 4.38171 32.6234C4.37861 33.5319 4.61979 34.1971 5.26913 34.8377C6.63582 36.1958 8.05817 37.4832 9.60111 38.7366C10.0742 38.0991 10.2381 37.3908 10.4205 36.7502C11.0606 34.502 11.8923 32.3154 12.588 30.0888C12.8571 29.2295 13.0673 28.4134 12.7736 27.5418C12.3871 26.4116 12.5169 25.3306 13.0148 24.262C13.1199 24.0433 13.1353 23.7846 13.2003 23.5167C12.4365 22.2755 11.4007 21.2254 10.5133 20.0643C10.1639 19.6054 9.96598 19.1681 9.97834 18.5861C10.0062 16.8306 10.0062 15.0721 9.97834 13.3136C9.96907 12.6946 10.1701 12.1895 10.4978 11.6783C12.2479 8.95272 13.6084 6.06395 14.1155 2.82717C14.1341 2.70707 14.1897 2.58696 14.2485 2.47917C14.2856 2.41449 14.3691 2.37446 14.4773 2.28514C15.0648 2.5808 15.3091 3.17826 15.5966 3.70797C16.6077 5.58967 17.0932 7.60996 16.9881 9.73804C16.951 10.5603 17.1736 11.1793 17.7209 11.7645C18.262 12.3435 18.732 12.9841 19.0783 13.406C22.0962 13.3967 25.0212 12.5621 27.4671 14.9027C27.2197 14.2098 27.1084 14.0958 26.5147 13.7263C26.0571 13.4429 25.5191 13.292 25.1295 12.9194C25.1264 12.8547 25.1047 12.8054 25.1202 12.7746C25.9829 11.1147 25.9612 9.33152 25.9056 7.53297C25.8623 6.02391 26.357 4.71196 27.5413 3.51395C27.7732 4.04058 27.7361 4.48714 27.699 4.90598C27.5227 6.71993 28.0546 8.37065 28.843 9.96594C29.0657 10.4156 29.2203 10.9176 29.5233 11.3056C30.7076 12.8085 30.7354 14.5516 30.6148 16.3194C30.553 17.2187 30.6303 18.044 31.1714 18.8078C32.0804 20.1013 32.1856 21.5364 31.6352 22.9654C31.4187 23.5259 31.595 23.8524 31.8949 24.1634C33.209 25.5185 34.2232 27.1199 35.593 28.435C36.5083 29.3127 36.3289 30.3167 35.2189 31.1543C34.7829 30.7725 35.2313 30.1627 34.7272 29.6114C34.6314 30.7694 34.1181 31.7118 34.2171 32.7774C34.2665 33.3317 34.7396 33.5996 35.0797 33.9014C35.4137 34.037 35.6209 33.615 35.9332 33.7783C36.3135 34.7607 35.6549 35.1179 34.9653 35.4598C34.4428 35.2812 34.2387 34.736 33.6667 34.5112C33.3049 34.8377 32.8596 35.1549 32.5288 35.5645C32.0031 36.2174 31.3538 36.3067 30.621 36.1219C30.2097 36.0172 29.8047 35.9464 29.3811 35.971C28.4936 37.9051 29.245 39.4973 30.3922 41.0525C31.1559 40.8924 31.6908 40.3596 32.2041 39.9346C34.1243 38.3362 36.0847 36.7871 37.8255 34.9824C38.5274 34.2587 38.8737 33.498 38.8706 32.4447C38.8304 24.7855 38.8613 17.1293 38.8706 9.47011V7.4375C37.8781 6.84928 36.9412 6.30725 36.0197 5.7375C35.6023 5.4788 35.2405 5.47572 34.888 5.83297C34.2449 6.48279 33.4348 6.93551 32.7112 7.4683C31.8393 8.10888 30.6952 8.38913 29.6717 8.82337C29.1708 7.89638 28.7596 7.0433 29.01 5.90072C31.0879 4.75815 33.2121 3.51087 34.9406 1.70616C35.7847 1.94022 36.4186 2.43605 37.0989 2.82409C38.3697 3.55399 39.6034 4.35471 40.8897 5.05688C41.6782 5.48188 41.9998 6.01159 41.9936 6.93859C41.9534 14.5147 41.9627 22.0908 41.9596 29.6638C41.9596 30.9603 41.9039 32.263 41.9905 33.5534C42.0554 34.5605 41.6999 35.3058 41.0412 36.0203ZM32.5195 33.8799C33.6079 32.8359 33.7409 32.4047 33.005 31.0928C32.974 31.0373 32.8751 31.0219 32.8194 30.9911C32.4824 31.1728 32.1639 31.3668 31.731 31.3915C31.193 31.0527 30.6024 30.7324 30.2809 30.1257C30.3303 29.7716 30.5406 29.4759 30.4324 29.0663C30.0118 28.4996 29.3254 28.1455 28.7781 27.6342C28.203 27.0891 27.566 26.6056 26.9723 26.0821C25.6139 24.8851 24.0586 24.2999 22.3064 24.3266C20.6645 24.3513 19.6751 25.3306 19.6658 26.9536C19.6627 27.3263 19.7153 27.7081 19.6751 28.0777C19.5947 28.8076 19.8637 29.3404 20.4048 29.8332C21.6694 30.9911 22.9403 32.1491 24.1029 33.4087C24.7461 34.1078 25.4356 34.3141 26.3168 34.2556C27.6155 34.1663 28.9327 34.1263 30.1819 34.5051C31.159 34.8038 31.8145 34.5574 32.5195 33.8799ZM30.4076 22.1092C30.5777 21.5703 30.9487 21.1976 30.9889 20.7603C30.788 20.4 30.5282 20.2799 30.1541 20.1629C29.8232 20.3507 29.5388 20.5201 29.3996 20.9451C29.6841 21.3147 29.8727 21.8074 30.4076 22.1092ZM23.8432 21.9368C22.897 20.1444 21.9292 19.9011 20.2595 21.0344C21.0263 22.254 21.9446 22.485 23.8432 21.9368ZM13.4569 10.4217C12.3005 11.4504 12.2634 11.6875 13.1013 12.8886C13.6022 13.6092 14.1434 14.3053 14.6134 15.0475C14.9658 15.5987 15.5008 16.0576 15.6183 16.7844C15.139 17.4958 14.7772 18.2904 14.1341 18.9371C13.661 18.6476 13.3332 18.2996 13.1106 17.9763C13.157 17.3696 13.6919 17.1109 13.6548 16.535C13.4291 16.2024 13.259 15.7281 12.6561 15.6172C12.6963 16.0207 13.0364 16.2393 12.9282 16.6458C12.8478 16.7752 12.7519 16.96 12.6344 17.1293C12.1428 17.8469 12.1644 18.4875 12.8076 19.1342C13.3611 19.6947 13.8465 20.3261 14.4835 21.0683C15.6152 19.5531 16.4439 18.0379 17.2385 16.498C15.9089 14.8072 14.6195 13.175 13.2961 11.4966C13.1786 11.1578 13.8342 10.8529 13.4569 10.4217ZM13.2961 11.4966C13.1786 11.1578 13.8342 10.8529 13.4569 10.4217C12.3005 11.4504 12.2634 11.6875 13.1013 12.8886C13.6022 13.6092 14.1434 14.3053 14.6134 15.0475C14.9658 15.5987 15.5008 16.0576 15.6183 16.7844C15.139 17.4958 14.7772 18.2904 14.1341 18.9371C13.661 18.6476 13.3332 18.2996 13.1106 17.9763C13.157 17.3696 13.6919 17.1109 13.6548 16.535C13.4291 16.2024 13.259 15.7281 12.6561 15.6172C12.6963 16.0207 13.0364 16.2393 12.9282 16.6458C12.8478 16.7752 12.7519 16.96 12.6344 17.1293C12.1428 17.8469 12.1644 18.4875 12.8076 19.1342C13.3611 19.6947 13.8465 20.3261 14.4835 21.0683C15.6152 19.5531 16.4439 18.0379 17.2385 16.498C15.9089 14.8072 14.6195 13.175 13.2961 11.4966ZM20.2595 21.0344C21.0263 22.254 21.9446 22.485 23.8432 21.9368C22.897 20.1444 21.9292 19.9011 20.2595 21.0344ZM30.1541 20.1629C29.8232 20.3507 29.5388 20.5201 29.3996 20.9451C29.6841 21.3147 29.8727 21.8074 30.4076 22.1092C30.5777 21.5703 30.9487 21.1976 30.9889 20.7603C30.788 20.4 30.5282 20.2799 30.1541 20.1629ZM33.005 31.0928C32.974 31.0373 32.8751 31.0219 32.8194 30.9911C32.4824 31.1728 32.1639 31.3668 31.731 31.3915C31.193 31.0527 30.6024 30.7324 30.2809 30.1257C30.3303 29.7716 30.5406 29.4759 30.4324 29.0663C30.0118 28.4996 29.3254 28.1455 28.7781 27.6342C28.203 27.0891 27.566 26.6056 26.9723 26.0821C25.6139 24.8851 24.0586 24.2999 22.3064 24.3266C20.6645 24.3513 19.6751 25.3306 19.6658 26.9536C19.6627 27.3263 19.7153 27.7081 19.6751 28.0777C19.5947 28.8076 19.8637 29.3404 20.4048 29.8332C21.6694 30.9911 22.9403 32.1491 24.1029 33.4087C24.7461 34.1078 25.4356 34.3141 26.3168 34.2556C27.6155 34.1663 28.9327 34.1263 30.1819 34.5051C31.159 34.8038 31.8145 34.5574 32.5195 33.8799C33.6079 32.8359 33.7409 32.4047 33.005 31.0928ZM33.005 31.0928C32.974 31.0373 32.8751 31.0219 32.8194 30.9911C32.4824 31.1728 32.1639 31.3668 31.731 31.3915C31.193 31.0527 30.6024 30.7324 30.2809 30.1257C30.3303 29.7716 30.5406 29.4759 30.4324 29.0663C30.0118 28.4996 29.3254 28.1455 28.7781 27.6342C28.203 27.0891 27.566 26.6056 26.9723 26.0821C25.6139 24.8851 24.0586 24.2999 22.3064 24.3266C20.6645 24.3513 19.6751 25.3306 19.6658 26.9536C19.6627 27.3263 19.7153 27.7081 19.6751 28.0777C19.5947 28.8076 19.8637 29.3404 20.4048 29.8332C21.6694 30.9911 22.9403 32.1491 24.1029 33.4087C24.7461 34.1078 25.4356 34.3141 26.3168 34.2556C27.6155 34.1663 28.9327 34.1263 30.1819 34.5051C31.159 34.8038 31.8145 34.5574 32.5195 33.8799C33.6079 32.8359 33.7409 32.4047 33.005 31.0928ZM13.2961 11.4966C13.1786 11.1578 13.8342 10.8529 13.4569 10.4217C12.3005 11.4504 12.2634 11.6875 13.1013 12.8886C13.6022 13.6092 14.1434 14.3053 14.6134 15.0475C14.9658 15.5987 15.5008 16.0576 15.6183 16.7844C15.139 17.4958 14.7772 18.2904 14.1341 18.9371C13.661 18.6476 13.3332 18.2996 13.1106 17.9763C13.157 17.3696 13.6919 17.1109 13.6548 16.535C13.4291 16.2024 13.259 15.7281 12.6561 15.6172C12.6963 16.0207 13.0364 16.2393 12.9282 16.6458C12.8478 16.7752 12.7519 16.96 12.6344 17.1293C12.1428 17.8469 12.1644 18.4875 12.8076 19.1342C13.3611 19.6947 13.8465 20.3261 14.4835 21.0683C15.6152 19.5531 16.4439 18.0379 17.2385 16.498C15.9089 14.8072 14.6195 13.175 13.2961 11.4966ZM20.2595 21.0344C21.0263 22.254 21.9446 22.485 23.8432 21.9368C22.897 20.1444 21.9292 19.9011 20.2595 21.0344ZM30.1541 20.1629C29.8232 20.3507 29.5388 20.5201 29.3996 20.9451C29.6841 21.3147 29.8727 21.8074 30.4076 22.1092C30.5777 21.5703 30.9487 21.1976 30.9889 20.7603C30.788 20.4 30.5282 20.2799 30.1541 20.1629Z" fill="#FBFAFF"/>
<path d="M60.6014 22.2632C58.4308 22.2632 56.6343 21.5518 55.2058 20.129C53.7773 18.7061 53.063 16.9569 53.063 14.875C53.063 12.7931 53.7773 11.0438 55.2058 9.62099C56.6343 8.19817 58.4308 7.48676 60.6014 7.48676C62.2031 7.48676 63.6688 7.96103 64.9984 8.9065C66.3249 9.85197 67.1845 11.0962 67.5741 12.6422H64.0769C63.7646 11.9831 63.2946 11.4781 62.6608 11.1208C62.0269 10.7666 61.3404 10.588 60.5984 10.588C59.3059 10.588 58.2638 10.9976 57.4754 11.8168C56.6869 12.636 56.2942 13.6554 56.2942 14.875C56.2942 16.0945 56.6869 17.117 57.4754 17.9331C58.2638 18.7523 59.3059 19.1619 60.5984 19.1619C61.3404 19.1619 62.0269 18.9833 62.6608 18.6291C63.2946 18.275 63.7646 17.7668 64.0769 17.1078H67.5741C67.1845 18.6507 66.3249 19.8949 64.9984 20.8435C63.6719 21.7889 62.2062 22.2632 60.6014 22.2632Z" fill="white"/>
<path d="M69.3149 22.023V11.9585H72.3668V13.4676C72.5276 13.0118 72.8337 12.6237 73.2759 12.3096C73.7211 11.9955 74.219 11.8353 74.7724 11.8353C75.1218 11.8353 75.4527 11.8754 75.7619 11.9554V15.0351C75.2888 14.875 74.8374 14.7949 74.4076 14.7949C73.7613 14.7949 73.2604 15.0197 72.9017 15.4694C72.5431 15.919 72.3668 16.5134 72.3668 17.2495V22.0199H69.3149V22.023Z" fill="white"/>
<path d="M81.6028 26.2299H78.3067L80.4093 21.4379L76.2041 11.9554H79.5404L82.0481 18.1765L84.5341 11.9554H87.889L81.6059 26.2268L81.6028 26.2299Z" fill="white"/>
<path d="M92.15 26.2299H89.0981V11.9585H92.15V12.9656C92.3665 12.6422 92.722 12.3589 93.2199 12.1094C93.7177 11.8599 94.2774 11.7368 94.8989 11.7368C96.2068 11.7368 97.3138 12.2541 98.2228 13.2858C99.1319 14.3176 99.5864 15.5525 99.5864 16.9907C99.5864 18.429 99.1319 19.6608 98.2228 20.6956C97.3138 21.7304 96.2068 22.2447 94.8989 22.2447C94.2804 22.2447 93.7208 22.1215 93.2199 21.8721C92.722 21.6226 92.3665 21.3393 92.15 21.0159V26.2299ZM92.5427 18.7831C92.9663 19.2543 93.5229 19.4884 94.2093 19.4884C94.8958 19.4884 95.4523 19.2543 95.876 18.7831C96.2996 18.315 96.5129 17.7176 96.5129 16.9907C96.5129 16.2639 96.2996 15.6695 95.876 15.1983C95.4523 14.7272 94.8958 14.4931 94.2093 14.4931C93.5229 14.4931 92.9663 14.7272 92.5427 15.1983C92.1191 15.6695 91.9057 16.2639 91.9057 16.9907C91.9057 17.7176 92.1191 18.3119 92.5427 18.7831Z" fill="white"/>
<path d="M106.398 22.1431C105.214 22.1431 104.24 21.8166 103.479 21.1668C102.716 20.517 102.338 19.5746 102.338 18.3396V14.5947H100.319V11.9585H102.338V9.16211H105.39V11.9585H108.22V14.5947H105.39V17.7145C105.39 18.3181 105.523 18.7554 105.795 19.0233C106.064 19.2913 106.503 19.4268 107.11 19.4268C107.567 19.4268 107.938 19.3652 108.22 19.2451V21.9429C107.774 22.0784 107.168 22.1431 106.401 22.1431H106.398Z" fill="white"/>
<path d="M118.445 20.7234C117.406 21.7366 116.154 22.2417 114.685 22.2417C113.216 22.2417 111.964 21.7366 110.925 20.7234C109.889 19.7102 109.37 18.466 109.37 16.9877C109.37 15.5094 109.889 14.2683 110.925 13.2551C111.964 12.2419 113.216 11.7337 114.685 11.7337C116.154 11.7337 117.406 12.2419 118.445 13.2551C119.481 14.2683 120 15.5125 120 16.9877C120 18.4629 119.481 19.7102 118.445 20.7234ZM113.08 18.74C113.504 19.1835 114.039 19.4053 114.685 19.4053C115.331 19.4053 115.866 19.1835 116.293 18.74C116.716 18.2966 116.93 17.7145 116.93 16.9877C116.93 16.2609 116.716 15.6788 116.293 15.2353C115.869 14.7919 115.331 14.5701 114.685 14.5701C114.039 14.5701 113.504 14.7919 113.08 15.2353C112.656 15.6788 112.443 16.2609 112.443 16.9877C112.443 17.7145 112.656 18.2966 113.08 18.74Z" fill="white"/>
<path d="M60.6014 43.5132C58.4308 43.5132 56.6343 42.8018 55.2058 41.379C53.7773 39.9561 53.063 38.2069 53.063 36.125C53.063 34.0431 53.7773 32.2938 55.2058 30.871C56.6343 29.4482 58.4308 28.7368 60.6014 28.7368C62.2031 28.7368 63.6688 29.211 64.9984 30.1565C66.3249 31.102 67.1845 32.3462 67.5741 33.8922H64.0769C63.7646 33.2331 63.2946 32.7281 62.6608 32.3708C62.0269 32.0166 61.3404 31.838 60.5984 31.838C59.3059 31.838 58.2638 32.2476 57.4754 33.0668C56.6869 33.886 56.2942 34.9054 56.2942 36.125C56.2942 37.3446 56.6869 38.367 57.4754 39.1831C58.2638 40.0023 59.3059 40.4119 60.5984 40.4119C61.3404 40.4119 62.0269 40.2333 62.6608 39.8792C63.2946 39.525 63.7646 39.0168 64.0769 38.3578H67.5741C67.1845 39.9007 66.3249 41.1449 64.9984 42.0935C63.6719 43.0389 62.2062 43.5132 60.6014 43.5132Z" fill="white"/>
<path d="M73.3966 43.4917C72.0886 43.4917 70.9816 42.9743 70.0726 41.9426C69.1635 40.9109 68.709 39.6759 68.709 38.2377C68.709 36.7995 69.1635 35.5676 70.0726 34.5328C70.9816 33.5011 72.0886 32.9837 73.3966 32.9837C74.5561 32.9837 75.4713 33.3933 76.1454 34.2125V33.2054H79.1973V43.2699H76.1454V42.2629C75.4713 43.0821 74.5561 43.4917 73.3966 43.4917ZM72.4164 40.0301C72.84 40.5013 73.3966 40.7353 74.083 40.7353C74.7694 40.7353 75.326 40.5013 75.7496 40.0301C76.1732 39.562 76.3866 38.9645 76.3866 38.2377C76.3866 37.5109 76.1732 36.9165 75.7496 36.4453C75.326 35.9741 74.7694 35.74 74.083 35.74C73.3966 35.74 72.84 35.9741 72.4164 36.4453C71.9928 36.9165 71.7794 37.5109 71.7794 38.2377C71.7794 38.9645 71.9928 39.5589 72.4164 40.0301Z" fill="white"/>
<path d="M81.7017 43.2699V33.2054H84.7535V34.231C85.3317 33.3995 86.2686 32.9837 87.5642 32.9837C88.7887 32.9837 89.7503 33.3933 90.4429 34.2125C91.1356 35.0317 91.485 36.1127 91.485 37.4524V43.2699H88.4331V37.9759C88.4331 36.4853 87.8858 35.74 86.7943 35.74C86.1882 35.74 85.6966 35.9618 85.3194 36.4053C84.9421 36.8487 84.7535 37.5047 84.7535 38.3763V43.2669H81.7017V43.2699Z" fill="white"/>
<path d="M97.9509 43.4916C96.6028 43.4916 95.4958 43.159 94.6269 42.4969C93.7581 41.8317 93.2943 40.9971 93.2417 39.99H96.4544C96.4822 40.3781 96.643 40.6768 96.9398 40.8862C97.2366 41.0956 97.6077 41.1973 98.0499 41.1973C98.8043 41.1973 99.1816 40.9817 99.1816 40.5536C99.1816 40.338 99.0981 40.1748 98.928 40.0608C98.7579 39.9469 98.458 39.8299 98.0282 39.7098L95.9875 39.1862C94.2899 38.7427 93.4396 37.6895 93.4396 36.0264C93.4396 35.1272 93.8168 34.3942 94.5713 33.8337C95.3258 33.2732 96.3554 32.9868 97.6634 32.9868C98.8229 32.9868 99.7876 33.2732 100.564 33.8429C101.337 34.4127 101.767 35.2165 101.847 36.2482H98.7734C98.6528 35.6322 98.2601 35.3212 97.6015 35.3212C96.9429 35.3212 96.5719 35.5368 96.5719 35.9648C96.5719 36.3406 96.9151 36.6023 97.6015 36.7502L99.4413 37.2337C100.452 37.5016 101.179 37.8927 101.624 38.4009C102.07 38.909 102.292 39.5743 102.292 40.3935C102.292 41.3205 101.887 42.0657 101.08 42.6386C100.273 43.2114 99.2279 43.4947 97.9478 43.4947L97.9509 43.4916Z" fill="white"/>
<path d="M105.848 42.9558C105.566 43.2361 105.229 43.3746 104.837 43.3746C104.444 43.3746 104.107 43.233 103.825 42.9558C103.544 42.6755 103.402 42.3399 103.402 41.9487C103.402 41.5576 103.544 41.2219 103.825 40.9417C104.107 40.6614 104.444 40.5228 104.837 40.5228C105.229 40.5228 105.566 40.6645 105.848 40.9417C106.129 41.2219 106.268 41.5576 106.268 41.9487C106.268 42.3399 106.126 42.6755 105.848 42.9558Z" fill="white"/>
<path d="M108.588 35.697C108.247 35.697 107.954 35.5738 107.703 35.3305C107.453 35.0872 107.329 34.7915 107.329 34.4435C107.329 34.0955 107.456 33.8029 107.703 33.5565C107.954 33.3133 108.247 33.1901 108.588 33.1901C108.943 33.1901 109.246 33.3133 109.49 33.5565C109.735 33.8029 109.858 34.0955 109.858 34.4435C109.858 34.7915 109.735 35.0841 109.49 35.3305C109.246 35.5768 108.943 35.697 108.588 35.697ZM107.583 43.27V36.6024H109.605V43.27H107.583Z" fill="white"/>
<path d="M116.858 42.4107C116.172 43.082 115.34 43.4177 114.369 43.4177C113.398 43.4177 112.567 43.082 111.88 42.4107C111.194 41.7393 110.851 40.9139 110.851 39.9377C110.851 38.9614 111.194 38.136 111.88 37.4646C112.567 36.7933 113.395 36.4576 114.369 36.4576C115.343 36.4576 116.172 36.7933 116.858 37.4646C117.545 38.136 117.888 38.9614 117.888 39.9377C117.888 40.9139 117.545 41.7393 116.858 42.4107ZM113.303 41.0956C113.584 41.3882 113.94 41.536 114.366 41.536C114.793 41.536 115.149 41.3882 115.43 41.0956C115.711 40.8031 115.85 40.415 115.85 39.9346C115.85 39.4541 115.711 39.0661 115.43 38.7735C115.149 38.481 114.793 38.3331 114.366 38.3331C113.94 38.3331 113.584 38.481 113.303 38.7735C113.021 39.0661 112.882 39.4541 112.882 39.9346C112.882 40.415 113.024 40.8031 113.303 41.0956Z" fill="white"/>
</g>
<defs>
<clipPath id="clip0_168_400">
<rect width="120" height="51" fill="white"/>
</clipPath>
</defs>
</svg>
