<svg width="150" height="64" viewBox="0 0 150 64" fill="none" xmlns="http://www.w3.org/2000/svg">
<path d="M16.6049 14.4161C16.4581 13.9913 17.2768 13.609 16.8057 13.0684C15.3614 14.3582 15.315 14.6556 16.3616 16.1617C16.9872 17.0653 17.663 17.9381 18.25 18.8688C18.6903 19.5601 19.3583 20.1355 19.5051 21.0469C18.9065 21.9389 18.4547 22.9353 17.6514 23.7463C17.0606 23.3833 16.6512 22.9469 16.3732 22.5414C16.4311 21.7806 17.0992 21.4562 17.0528 20.7341C16.7709 20.317 16.5585 19.7223 15.8055 19.5832C15.8557 20.0891 16.2805 20.3633 16.1453 20.8731C16.0449 21.0353 15.9252 21.267 15.7784 21.4794C15.1644 22.3792 15.1915 23.1825 15.9947 23.9934C16.686 24.6963 17.2923 25.488 18.0878 26.4186C19.5012 24.5186 20.5362 22.6186 21.5287 20.6877C19.8681 18.5676 18.2577 16.5208 16.6049 14.4161ZM25.3017 26.3762C26.2594 27.9054 27.4064 28.1951 29.7775 27.5077C28.5958 25.2601 27.3871 24.955 25.3017 26.3762ZM37.6595 25.2833C37.2463 25.5188 36.891 25.7312 36.7172 26.2642C37.0725 26.7276 37.308 27.3455 37.9761 27.7239C38.1885 27.0481 38.652 26.5808 38.7022 26.0325C38.4511 25.5806 38.1267 25.43 37.6595 25.2833ZM41.2201 38.9888C41.1814 38.9193 41.0579 38.9 40.9883 38.8614C40.5674 39.0892 40.1696 39.3325 39.629 39.3634C38.957 38.9386 38.2194 38.537 37.8178 37.7762C37.8796 37.3321 38.1422 36.9614 38.007 36.4478C37.4818 35.7372 36.6245 35.2931 35.941 34.652C35.2227 33.9685 34.4271 33.3622 33.6857 32.7057C31.989 31.2047 30.0466 30.471 27.8582 30.5044C25.8076 30.5353 24.5718 31.7634 24.5602 33.7986C24.5563 34.2658 24.622 34.7447 24.5718 35.2081C24.4714 36.1234 24.8074 36.7915 25.4832 37.4094C27.0627 38.8614 28.6499 40.3134 30.1019 41.8929C30.9052 42.7696 31.7663 43.0283 32.867 42.9549C34.4889 42.8429 36.1341 42.7927 37.6942 43.2677C38.9146 43.6423 39.7333 43.3334 40.6138 42.4838C41.9731 41.1746 42.1392 40.634 41.2201 38.9888ZM41.2201 38.9888C41.1814 38.9193 41.0579 38.9 40.9883 38.8614C40.5674 39.0892 40.1696 39.3325 39.629 39.3634C38.957 38.9386 38.2194 38.537 37.8178 37.7762C37.8796 37.3321 38.1422 36.9614 38.007 36.4478C37.4818 35.7372 36.6245 35.2931 35.941 34.652C35.2227 33.9685 34.4271 33.3622 33.6857 32.7057C31.989 31.2047 30.0466 30.471 27.8582 30.5044C25.8076 30.5353 24.5718 31.7634 24.5602 33.7986C24.5563 34.2658 24.622 34.7447 24.5718 35.2081C24.4714 36.1234 24.8074 36.7915 25.4832 37.4094C27.0627 38.8614 28.6499 40.3134 30.1019 41.8929C30.9052 42.7696 31.7663 43.0283 32.867 42.9549C34.4889 42.8429 36.1341 42.7927 37.6942 43.2677C38.9146 43.6423 39.7333 43.3334 40.6138 42.4838C41.9731 41.1746 42.1392 40.634 41.2201 38.9888ZM37.9761 27.7239C38.1885 27.0481 38.652 26.5808 38.7022 26.0325C38.4511 25.5806 38.1267 25.43 37.6595 25.2833C37.2463 25.5188 36.891 25.7312 36.7172 26.2642C37.0725 26.7276 37.308 27.3455 37.9761 27.7239ZM29.7775 27.5077C28.5958 25.2601 27.3871 24.955 25.3017 26.3762C26.2594 27.9054 27.4064 28.1951 29.7775 27.5077ZM16.8057 13.0684C15.3614 14.3582 15.315 14.6556 16.3616 16.1617C16.9872 17.0653 17.663 17.9381 18.25 18.8688C18.6903 19.5601 19.3583 20.1355 19.5051 21.0469C18.9065 21.9389 18.4547 22.9353 17.6514 23.7463C17.0606 23.3833 16.6512 22.9469 16.3732 22.5414C16.4311 21.7806 17.0992 21.4562 17.0528 20.7341C16.7709 20.317 16.5585 19.7223 15.8055 19.5832C15.8557 20.0891 16.2805 20.3633 16.1453 20.8731C16.0449 21.0353 15.9252 21.267 15.7784 21.4794C15.1644 22.3792 15.1915 23.1825 15.9947 23.9934C16.686 24.6963 17.2923 25.488 18.0878 26.4186C19.5012 24.5186 20.5362 22.6186 21.5287 20.6877C19.8681 18.5676 18.2577 16.5208 16.6049 14.4161C16.4581 13.9913 17.2768 13.609 16.8057 13.0684ZM54.0104 7.19069C54.0413 6.53805 53.7787 6.0978 53.2264 5.77341C49.9864 3.86567 46.754 1.94249 43.4754 0C41.4054 2.12013 39.3432 4.12828 36.5743 5.17096C36.1109 4.36385 36.5318 3.61852 36.1649 3.01994C35.8097 2.79595 35.4273 2.93498 35.0759 2.86933C33.8015 2.62603 33.0407 3.23234 32.3997 4.27502C31.8243 5.21344 31.469 6.24841 30.9978 7.22159C29.5883 7.46874 28.2482 7.6348 26.8773 7.6348C25.6608 7.63094 24.4791 7.39923 23.2819 7.27565C22.5637 7.19842 22.0848 6.88175 21.8338 6.07849C21.4553 4.82726 20.8413 3.65327 20.0805 2.57969C18.9838 1.01566 18.5203 0.880493 16.4774 1.36322C16.2187 3.34433 15.9329 4.52604 15.7437 4.57238C14.0831 3.27868 12.1638 1.47521 10.5148 0.0115854C7.01214 2.08152 3.55582 4.12441 0.0145359 6.22138C-0.047253 8.78562 0.107219 11.1915 0.118805 13.5974C0.17287 23.4026 0.153561 33.2154 0.118805 43.0244C0.114943 44.044 0.381408 44.8472 1.03405 45.5925C2.69463 47.4925 4.47107 49.2767 6.35949 50.9411C12.2874 56.1662 18.8872 60.3678 26.0393 63.7199C26.8618 64.1099 27.5222 63.967 28.2675 63.6079C32.6623 61.4839 36.8639 59.0587 40.8609 56.2511C45.163 53.2312 49.1599 49.8792 52.6781 45.9594C53.5972 44.9283 54.0567 43.8779 54.0413 42.4452L54.0104 7.19069ZM22.6563 8.83582C25.3519 9.29538 28.0011 9.26062 30.7391 8.99802V12.6165C28.0783 13.3812 25.4175 13.2228 22.6563 12.5393V8.83582ZM51.2569 45.1677C49.1599 47.4501 46.9046 49.5586 44.5026 51.5127C39.1501 55.8727 33.3227 59.4487 27.0086 62.403C22.6602 60.4142 18.4894 58.0237 14.5156 55.3011C10.5302 52.5708 6.79201 49.5239 3.49403 45.9749C3.03061 45.4767 2.59809 44.9476 2.15012 44.4379C1.71759 43.9397 1.57085 43.3759 1.57085 42.7039C1.59015 31.2691 1.58629 19.8304 1.58629 8.39172V7.14049C4.49037 5.43357 7.32494 3.76527 10.2059 2.06993C11.8626 3.63396 13.6081 4.95084 15.4116 6.17117C15.2764 7.43012 14.6624 8.41489 14.2453 9.55412C12.8898 9.34558 11.9861 8.42647 10.9782 7.73907C9.64203 6.81996 9.66134 6.76975 8.2595 7.63866C7.37515 8.18318 6.41356 8.59639 5.48672 9.39579C5.48672 11.01 5.48286 12.7363 5.48672 14.4625C5.49058 23.2751 5.50989 32.0916 5.47127 40.9082C5.46741 42.0474 5.76863 42.8815 6.57962 43.6848C8.28654 45.3879 10.063 47.0021 11.99 48.5739C12.5809 47.7745 12.7855 46.8862 13.0134 46.083C13.8128 43.2639 14.8516 40.522 15.7205 37.7299C16.0565 36.6524 16.3191 35.6291 15.9522 34.5362C15.4695 33.1189 15.6317 31.7634 16.2535 30.4233C16.3848 30.1492 16.4041 29.8248 16.4852 29.4888C15.5313 27.9325 14.2376 26.6156 13.1292 25.1597C12.6929 24.5843 12.4457 24.0359 12.4612 23.306C12.4959 21.1048 12.4959 18.8997 12.4612 16.6946C12.4496 15.9184 12.7006 15.285 13.1099 14.644C15.2957 11.2263 16.9949 7.60391 17.6283 3.54514C17.6514 3.39453 17.7209 3.24392 17.7943 3.10876C17.8407 3.02766 17.9449 2.97746 18.0801 2.86546C18.8138 3.2362 19.1189 3.98539 19.4781 4.64962C20.7409 7.00919 21.3472 9.54253 21.2159 12.211C21.1695 13.2421 21.4476 14.0184 22.1311 14.7521C22.8069 15.4781 23.3939 16.2814 23.8265 16.8105C27.5956 16.7989 31.2489 15.7523 34.3036 18.6873C33.9946 17.8184 33.8556 17.6755 33.1141 17.2121C32.5426 16.8568 31.8706 16.6676 31.384 16.2003C31.3802 16.1192 31.3531 16.0574 31.3724 16.0188C32.4499 13.9373 32.4229 11.7013 32.3533 9.44599C32.2993 7.5537 32.9172 5.90857 34.3962 4.40633C34.6859 5.0667 34.6395 5.62666 34.5932 6.15187C34.3731 8.42647 35.0373 10.4964 36.0221 12.4968C36.3001 13.0606 36.4932 13.6901 36.8717 14.1767C38.3507 16.0613 38.3855 18.2471 38.2349 20.4637C38.1576 21.5914 38.2542 22.6264 38.93 23.5841C40.0654 25.206 40.1967 27.0056 39.5093 28.7975C39.2389 29.5004 39.4591 29.9097 39.8337 30.2998C41.4749 31.999 42.7416 34.0071 44.4524 35.6561C45.5955 36.7567 45.3715 38.0157 43.9851 39.0661C43.4406 38.5872 44.0006 37.8226 43.3711 37.1313C43.2514 38.5834 42.6103 39.7651 42.7339 41.1013C42.7957 41.7964 43.3865 42.1324 43.8113 42.5108C44.2284 42.6807 44.4872 42.1517 44.8772 42.3563C45.3522 43.5883 44.5296 44.0362 43.6684 44.4649C43.0158 44.2409 42.7609 43.5574 42.0465 43.2755C41.5947 43.6848 41.0386 44.0826 40.6253 44.5962C39.9688 45.4149 39.1579 45.5269 38.2426 45.2952C37.729 45.1639 37.2231 45.0751 36.694 45.106C35.5857 47.5312 36.5241 49.5277 37.9568 51.4779C38.9107 51.2771 39.5788 50.609 40.2198 50.0761C42.618 48.0718 45.0664 46.1293 47.2406 43.8663C48.1173 42.9588 48.5498 42.0049 48.5459 40.6842C48.4957 31.0799 48.5343 21.4794 48.5459 11.8751V9.32627C47.3063 8.58867 46.1361 7.90899 44.9853 7.19455C44.464 6.87016 44.0121 6.8663 43.5719 7.31427C42.7686 8.12911 41.7569 8.6968 40.8532 9.36489C39.7642 10.1681 38.3353 10.5196 37.057 11.0641C36.4314 9.90168 35.9178 8.83196 36.2306 7.39923C38.8257 5.9665 41.4788 4.40246 43.6376 2.13944C44.6918 2.43294 45.4835 3.05469 46.3331 3.54128C47.9203 4.45653 49.4612 5.4606 51.0677 6.34109C52.0524 6.87402 52.4541 7.53826 52.4463 8.70066C52.3961 18.2007 52.4077 27.7008 52.4039 37.197C52.4039 38.8228 52.3343 40.4563 52.4425 42.0744C52.5236 43.3372 52.0795 44.2718 51.2569 45.1677ZM40.6138 42.4838C41.9731 41.1746 42.1392 40.634 41.2201 38.9888C41.1814 38.9193 41.0579 38.9 40.9883 38.8614C40.5674 39.0892 40.1696 39.3325 39.629 39.3634C38.957 38.9386 38.2194 38.537 37.8178 37.7762C37.8796 37.3321 38.1422 36.9614 38.007 36.4478C37.4818 35.7372 36.6245 35.2931 35.941 34.652C35.2227 33.9685 34.4271 33.3622 33.6857 32.7057C31.989 31.2047 30.0466 30.471 27.8582 30.5044C25.8076 30.5353 24.5718 31.7634 24.5602 33.7986C24.5563 34.2658 24.622 34.7447 24.5718 35.2081C24.4714 36.1234 24.8074 36.7915 25.4832 37.4094C27.0627 38.8614 28.6499 40.3134 30.1019 41.8929C30.9052 42.7696 31.7663 43.0283 32.867 42.9549C34.4889 42.8429 36.1341 42.7927 37.6942 43.2677C38.9146 43.6423 39.7333 43.3334 40.6138 42.4838ZM37.9761 27.7239C38.1885 27.0481 38.652 26.5808 38.7022 26.0325C38.4511 25.5806 38.1267 25.43 37.6595 25.2833C37.2463 25.5188 36.891 25.7312 36.7172 26.2642C37.0725 26.7276 37.308 27.3455 37.9761 27.7239ZM29.7775 27.5077C28.5958 25.2601 27.3871 24.955 25.3017 26.3762C26.2594 27.9054 27.4064 28.1951 29.7775 27.5077ZM16.8057 13.0684C15.3614 14.3582 15.315 14.6556 16.3616 16.1617C16.9872 17.0653 17.663 17.9381 18.25 18.8688C18.6903 19.5601 19.3583 20.1355 19.5051 21.0469C18.9065 21.9389 18.4547 22.9353 17.6514 23.7463C17.0606 23.3833 16.6512 22.9469 16.3732 22.5414C16.4311 21.7806 17.0992 21.4562 17.0528 20.7341C16.7709 20.317 16.5585 19.7223 15.8055 19.5832C15.8557 20.0891 16.2805 20.3633 16.1453 20.8731C16.0449 21.0353 15.9252 21.267 15.7784 21.4794C15.1644 22.3792 15.1915 23.1825 15.9947 23.9934C16.686 24.6963 17.2923 25.488 18.0878 26.4186C19.5012 24.5186 20.5362 22.6186 21.5287 20.6877C19.8681 18.5676 18.2577 16.5208 16.6049 14.4161C16.4581 13.9913 17.2768 13.609 16.8057 13.0684ZM16.6049 14.4161C16.4581 13.9913 17.2768 13.609 16.8057 13.0684C15.3614 14.3582 15.315 14.6556 16.3616 16.1617C16.9872 17.0653 17.663 17.9381 18.25 18.8688C18.6903 19.5601 19.3583 20.1355 19.5051 21.0469C18.9065 21.9389 18.4547 22.9353 17.6514 23.7463C17.0606 23.3833 16.6512 22.9469 16.3732 22.5414C16.4311 21.7806 17.0992 21.4562 17.0528 20.7341C16.7709 20.317 16.5585 19.7223 15.8055 19.5832C15.8557 20.0891 16.2805 20.3633 16.1453 20.8731C16.0449 21.0353 15.9252 21.267 15.7784 21.4794C15.1644 22.3792 15.1915 23.1825 15.9947 23.9934C16.686 24.6963 17.2923 25.488 18.0878 26.4186C19.5012 24.5186 20.5362 22.6186 21.5287 20.6877C19.8681 18.5676 18.2577 16.5208 16.6049 14.4161ZM25.3017 26.3762C26.2594 27.9054 27.4064 28.1951 29.7775 27.5077C28.5958 25.2601 27.3871 24.955 25.3017 26.3762ZM37.6595 25.2833C37.2463 25.5188 36.891 25.7312 36.7172 26.2642C37.0725 26.7276 37.308 27.3455 37.9761 27.7239C38.1885 27.0481 38.652 26.5808 38.7022 26.0325C38.4511 25.5806 38.1267 25.43 37.6595 25.2833ZM41.2201 38.9888C41.1814 38.9193 41.0579 38.9 40.9883 38.8614C40.5674 39.0892 40.1696 39.3325 39.629 39.3634C38.957 38.9386 38.2194 38.537 37.8178 37.7762C37.8796 37.3321 38.1422 36.9614 38.007 36.4478C37.4818 35.7372 36.6245 35.2931 35.941 34.652C35.2227 33.9685 34.4271 33.3622 33.6857 32.7057C31.989 31.2047 30.0466 30.471 27.8582 30.5044C25.8076 30.5353 24.5718 31.7634 24.5602 33.7986C24.5563 34.2658 24.622 34.7447 24.5718 35.2081C24.4714 36.1234 24.8074 36.7915 25.4832 37.4094C27.0627 38.8614 28.6499 40.3134 30.1019 41.8929C30.9052 42.7696 31.7663 43.0283 32.867 42.9549C34.4889 42.8429 36.1341 42.7927 37.6942 43.2677C38.9146 43.6423 39.7333 43.3334 40.6138 42.4838C41.9731 41.1746 42.1392 40.634 41.2201 38.9888ZM41.2201 38.9888C41.1814 38.9193 41.0579 38.9 40.9883 38.8614C40.5674 39.0892 40.1696 39.3325 39.629 39.3634C38.957 38.9386 38.2194 38.537 37.8178 37.7762C37.8796 37.3321 38.1422 36.9614 38.007 36.4478C37.4818 35.7372 36.6245 35.2931 35.941 34.652C35.2227 33.9685 34.4271 33.3622 33.6857 32.7057C31.989 31.2047 30.0466 30.471 27.8582 30.5044C25.8076 30.5353 24.5718 31.7634 24.5602 33.7986C24.5563 34.2658 24.622 34.7447 24.5718 35.2081C24.4714 36.1234 24.8074 36.7915 25.4832 37.4094C27.0627 38.8614 28.6499 40.3134 30.1019 41.8929C30.9052 42.7696 31.7663 43.0283 32.867 42.9549C34.4889 42.8429 36.1341 42.7927 37.6942 43.2677C38.9146 43.6423 39.7333 43.3334 40.6138 42.4838C41.9731 41.1746 42.1392 40.634 41.2201 38.9888ZM16.6049 14.4161C16.4581 13.9913 17.2768 13.609 16.8057 13.0684C15.3614 14.3582 15.315 14.6556 16.3616 16.1617C16.9872 17.0653 17.663 17.9381 18.25 18.8688C18.6903 19.5601 19.3583 20.1355 19.5051 21.0469C18.9065 21.9389 18.4547 22.9353 17.6514 23.7463C17.0606 23.3833 16.6512 22.9469 16.3732 22.5414C16.4311 21.7806 17.0992 21.4562 17.0528 20.7341C16.7709 20.317 16.5585 19.7223 15.8055 19.5832C15.8557 20.0891 16.2805 20.3633 16.1453 20.8731C16.0449 21.0353 15.9252 21.267 15.7784 21.4794C15.1644 22.3792 15.1915 23.1825 15.9947 23.9934C16.686 24.6963 17.2923 25.488 18.0878 26.4186C19.5012 24.5186 20.5362 22.6186 21.5287 20.6877C19.8681 18.5676 18.2577 16.5208 16.6049 14.4161ZM25.3017 26.3762C26.2594 27.9054 27.4064 28.1951 29.7775 27.5077C28.5958 25.2601 27.3871 24.955 25.3017 26.3762ZM37.6595 25.2833C37.2463 25.5188 36.891 25.7312 36.7172 26.2642C37.0725 26.7276 37.308 27.3455 37.9761 27.7239C38.1885 27.0481 38.652 26.5808 38.7022 26.0325C38.4511 25.5806 38.1267 25.43 37.6595 25.2833Z" fill="url(#paint0_linear_1_304)"/>
<path d="M30.7391 8.99798V12.6165C28.0784 13.3811 25.4176 13.2228 22.6564 12.5393V8.83578C25.3519 9.29534 28.0011 9.26058 30.7391 8.99798Z" fill="black"/>
<path d="M52.4424 42.0744C52.3343 40.4563 52.4038 38.8228 52.4038 37.1969C52.4077 27.7008 52.3961 18.2007 52.4463 8.70064C52.454 7.53824 52.0524 6.87401 51.0676 6.34108C49.4611 5.46059 47.9203 4.45651 46.3331 3.54127C45.4835 3.05468 44.6918 2.43293 43.6375 2.13943C41.4788 4.40245 38.8257 5.96648 36.2306 7.39921C35.9177 8.83195 36.4314 9.90167 37.057 11.0641C38.3352 10.5196 39.7641 10.1681 40.8531 9.36488C41.7568 8.69678 42.7686 8.1291 43.5719 7.31425C44.0121 6.86628 44.4639 6.87015 44.9853 7.19454C46.1361 7.90897 47.3062 8.58865 48.5459 9.32626V11.8751C48.5343 21.4794 48.4957 31.0798 48.5459 40.6842C48.5497 42.0049 48.1172 42.9588 47.2406 43.8663C45.0664 46.1293 42.618 48.0718 40.2198 50.0761C39.5787 50.609 38.9107 51.2771 37.9568 51.4779C36.5241 49.5277 35.5856 47.5312 36.694 45.1059C37.223 45.075 37.7289 45.1639 38.2426 45.2952C39.1578 45.5269 39.9688 45.4149 40.6253 44.5962C41.0385 44.0826 41.5946 43.6848 42.0464 43.2754C42.7609 43.5574 43.0158 44.2409 43.6684 44.4649C44.5296 44.0362 45.3521 43.5882 44.8771 42.3563C44.4871 42.1516 44.2284 42.6807 43.8113 42.5108C43.3865 42.1323 42.7956 41.7964 42.7338 41.1012C42.6103 39.7651 43.2513 38.5833 43.371 37.1313C44.0005 37.8226 43.4406 38.5872 43.9851 39.0661C45.3715 38.0157 45.5954 36.7567 44.4524 35.6561C42.7416 34.0071 41.4749 31.9989 39.8336 30.2998C39.459 29.9097 39.2389 29.5004 39.5092 28.7975C40.1966 27.0056 40.0653 25.206 38.93 23.5841C38.2541 22.6263 38.1576 21.5914 38.2348 20.4637C38.3854 18.247 38.3507 16.0613 36.8716 14.1767C36.4932 13.6901 36.3001 13.0606 36.022 12.4968C35.0373 10.4964 34.373 8.42646 34.5931 6.15185C34.6395 5.62664 34.6858 5.06668 34.3962 4.40631C32.9171 5.90856 32.2992 7.55369 32.3533 9.44597C32.4228 11.7013 32.4498 13.9373 31.3724 16.0188C31.3531 16.0574 31.3801 16.1192 31.384 16.2003C31.8706 16.6676 32.5425 16.8568 33.1141 17.2121C33.8555 17.6755 33.9946 17.8184 34.3035 18.6873C31.2488 15.7523 27.5955 16.7989 23.8264 16.8104C23.3939 16.2814 22.8069 15.4781 22.1311 14.7521C21.4475 14.0184 21.1695 13.2421 21.2158 12.211C21.3471 9.54252 20.7408 7.00917 19.478 4.64961C19.1189 3.98537 18.8138 3.23618 18.08 2.86545C17.9449 2.97744 17.8406 3.02764 17.7943 3.10874C17.7209 3.24391 17.6514 3.39452 17.6282 3.54513C16.9949 7.60389 15.2957 11.2263 13.1099 14.644C12.7005 15.285 12.4495 15.9184 12.4611 16.6946C12.4959 18.8997 12.4959 21.1048 12.4611 23.306C12.4457 24.0359 12.6928 24.5843 13.1292 25.1597C14.2375 26.6156 15.5312 27.9325 16.4851 29.4888C16.404 29.8248 16.3847 30.1491 16.2534 30.4233C15.6317 31.7634 15.4695 33.1189 15.9522 34.5362C16.3191 35.6291 16.0565 36.6524 15.7205 37.7299C14.8516 40.522 13.8127 43.2639 13.0133 46.083C12.7855 46.8862 12.5808 47.7744 11.99 48.5738C10.0629 47.0021 8.28649 45.3878 6.57957 43.6848C5.76859 42.8815 5.46737 42.0474 5.47123 40.9081C5.50985 32.0916 5.49054 23.2751 5.48668 14.4625C5.48282 12.7362 5.48668 11.01 5.48668 9.39577C6.41351 8.59638 7.3751 8.18316 8.25946 7.63865C9.66129 6.76974 9.64199 6.81994 10.9782 7.73905C11.9861 8.42646 12.8898 9.34557 14.2453 9.5541C14.6623 8.41487 15.2764 7.43011 15.4115 6.17116C13.6081 4.95083 11.8625 3.63395 10.2058 2.06992C7.3249 3.76525 4.49033 5.43355 1.58625 7.14047V8.3917C1.58625 19.8304 1.59011 31.2691 1.5708 42.7039C1.5708 43.3758 1.71755 43.9397 2.15007 44.4378C2.59804 44.9476 3.03057 45.4767 3.49398 45.9748C6.79197 49.5238 10.5302 52.5708 14.5156 55.3011C18.4894 58.0237 22.6602 60.4142 27.0086 62.403C33.3226 59.4487 39.1501 55.8727 44.5026 51.5127C46.9046 49.5586 49.1599 47.4501 51.2569 45.1677C52.0794 44.2718 52.5235 43.3372 52.4424 42.0744ZM18.0878 26.4186C17.2922 25.4879 16.6859 24.6963 15.9947 23.9934C15.1914 23.1824 15.1644 22.3792 15.7784 21.4794C15.9252 21.267 16.0449 21.0353 16.1453 20.8731C16.2804 20.3633 15.8556 20.0891 15.8054 19.5832C16.5585 19.7223 16.7709 20.317 17.0528 20.734C17.0991 21.4562 16.431 21.7806 16.3731 22.5414C16.6512 22.9469 17.0605 23.3833 17.6514 23.7463C18.4546 22.9353 18.9065 21.9389 19.5051 21.0469C19.3583 20.1355 18.6902 19.5601 18.25 18.8688C17.663 17.9381 16.9871 17.0653 16.3615 16.1617C15.315 14.6556 15.3613 14.3582 16.8056 13.0684C17.2768 13.609 16.4581 13.9913 16.6048 14.4161C18.2577 16.5208 19.8681 18.5676 21.5286 20.6877C20.5362 22.6186 19.5012 24.5186 18.0878 26.4186ZM37.6594 25.2833C38.1267 25.43 38.4511 25.5806 38.7021 26.0325C38.6519 26.5808 38.1885 27.0481 37.9761 27.7239C37.308 27.3455 37.0724 26.7276 36.7171 26.2642C36.8909 25.7312 37.2462 25.5188 37.6594 25.2833ZM29.7775 27.5077C27.4063 28.1951 26.2594 27.9054 25.3016 26.3762C27.387 24.955 28.5958 25.2601 29.7775 27.5077ZM32.8669 42.9549C31.7663 43.0283 30.9051 42.7695 30.1019 41.8929C28.6498 40.3134 27.0626 38.8614 25.4831 37.4093C24.8073 36.7915 24.4713 36.1234 24.5717 35.2081C24.622 34.7447 24.5563 34.2658 24.5602 33.7986C24.5717 31.7634 25.8075 30.5353 27.8581 30.5044C30.0491 30.471 31.9916 31.2047 33.6856 32.7057C34.4271 33.3622 35.2226 33.9685 35.9409 34.652C36.6245 35.2931 37.4818 35.7372 38.007 36.4478C38.1422 36.9614 37.8795 37.3321 37.8178 37.7762C38.2194 38.537 38.957 38.9386 39.6289 39.3634C40.1696 39.3325 40.5674 39.0892 40.9883 38.8614C41.0578 38.9 41.1814 38.9193 41.22 38.9888C42.1391 40.634 41.9731 41.1746 40.6137 42.4838C39.7332 43.3334 38.9145 43.6423 37.6942 43.2677C36.134 42.7927 34.4889 42.8429 32.8669 42.9549Z" fill="black"/>
<path d="M75.8146 27.9171C73.1036 27.9171 70.8599 27.025 69.0758 25.2408C67.2916 23.4567 66.3995 21.2632 66.3995 18.6526C66.3995 16.042 67.2916 13.8485 69.0758 12.0643C70.8599 10.2802 73.1036 9.38809 75.8146 9.38809C77.8151 9.38809 79.6455 9.98281 81.3061 11.1684C82.9628 12.354 84.0364 13.9141 84.523 15.8528H80.1553C79.7653 15.0263 79.1783 14.393 78.3866 13.945C77.5949 13.5009 76.7376 13.2769 75.8108 13.2769C74.1965 13.2769 72.8951 13.7906 71.9103 14.8178C70.9256 15.845 70.4351 17.1233 70.4351 18.6526C70.4351 20.1819 70.9256 21.464 71.9103 22.4874C72.8951 23.5146 74.1965 24.0282 75.8108 24.0282C76.7376 24.0282 77.5949 23.8042 78.3866 23.3601C79.1783 22.916 79.7653 22.2788 80.1553 21.4524H84.523C84.0364 23.3872 82.9628 24.9473 81.3061 26.1368C79.6494 27.3223 77.8189 27.9171 75.8146 27.9171Z" fill="white"/>
<path d="M86.6973 27.6159V14.9955H90.5089V16.8878C90.7097 16.3162 91.092 15.8296 91.6442 15.4357C92.2003 15.0418 92.8221 14.841 93.5134 14.841C93.9497 14.841 94.363 14.8912 94.7491 14.9916V18.8534C94.1583 18.6526 93.5945 18.5522 93.0577 18.5522C92.2506 18.5522 91.6249 18.8341 91.177 19.3979C90.729 19.9618 90.5089 20.7071 90.5089 21.6301V27.612H86.6973V27.6159Z" fill="white"/>
<path d="M102.044 32.8911H97.9274L100.553 26.8821L95.3014 14.9916H99.4683L102.6 22.7925L105.705 14.9916H109.895L102.048 32.8872L102.044 32.8911Z" fill="white"/>
<path d="M115.217 32.8911H111.405V14.9955H115.217V16.2583C115.487 15.8528 115.931 15.4975 116.553 15.1847C117.175 14.8719 117.874 14.7174 118.65 14.7174C120.283 14.7174 121.666 15.3662 122.801 16.6599C123.937 17.9536 124.504 19.5022 124.504 21.3057C124.504 23.1092 123.937 24.6539 122.801 25.9514C121.666 27.249 120.283 27.8939 118.65 27.8939C117.878 27.8939 117.179 27.7395 116.553 27.4267C115.931 27.1138 115.487 26.7586 115.217 26.3531V32.8911ZM115.707 23.5533C116.236 24.1441 116.931 24.4376 117.789 24.4376C118.646 24.4376 119.341 24.1441 119.87 23.5533C120.399 22.9663 120.666 22.2171 120.666 21.3057C120.666 20.3943 120.399 19.649 119.87 19.0581C119.341 18.4673 118.646 18.1738 117.789 18.1738C116.931 18.1738 116.236 18.4673 115.707 19.0581C115.178 19.649 114.912 20.3943 114.912 21.3057C114.912 22.2171 115.178 22.9624 115.707 23.5533Z" fill="white"/>
<path d="M133.012 27.7665C131.533 27.7665 130.316 27.3571 129.366 26.5423C128.413 25.7274 127.941 24.5457 127.941 22.9971V18.3012H125.42V14.9954H127.941V11.4889H131.753V14.9954H135.287V18.3012H131.753V22.2132C131.753 22.9701 131.919 23.5185 132.259 23.8544C132.595 24.1904 133.143 24.3603 133.9 24.3603C134.472 24.3603 134.935 24.2831 135.287 24.1325V27.5154C134.73 27.6854 133.974 27.7665 133.016 27.7665H133.012Z" fill="white"/>
<path d="M148.058 25.9862C146.76 27.2567 145.196 27.8901 143.362 27.8901C141.527 27.8901 139.963 27.2567 138.666 25.9862C137.372 24.7157 136.723 23.1555 136.723 21.3018C136.723 19.4481 137.372 17.8918 138.666 16.6213C139.963 15.3508 141.527 14.7136 143.362 14.7136C145.196 14.7136 146.76 15.3508 148.058 16.6213C149.351 17.8918 150 19.452 150 21.3018C150 23.1516 149.351 24.7157 148.058 25.9862ZM141.357 23.4992C141.887 24.0553 142.555 24.3333 143.362 24.3333C144.169 24.3333 144.837 24.0553 145.37 23.4992C145.899 22.9431 146.165 22.2132 146.165 21.3018C146.165 20.3904 145.899 19.6605 145.37 19.1044C144.841 18.5483 144.169 18.2703 143.362 18.2703C142.555 18.2703 141.887 18.5483 141.357 19.1044C140.828 19.6605 140.562 20.3904 140.562 21.3018C140.562 22.2132 140.828 22.9431 141.357 23.4992Z" fill="white"/>
<path d="M75.8148 54.5636C73.1038 54.5636 70.86 53.6715 69.0759 51.8873C67.2917 50.1032 66.3997 47.9097 66.3997 45.2991C66.3997 42.6885 67.2917 40.495 69.0759 38.7108C70.86 36.9267 73.1038 36.0346 75.8148 36.0346C77.8152 36.0346 79.6457 36.6293 81.3063 37.8149C82.963 39.0005 84.0365 40.5607 84.5231 42.4993H80.1554C79.7654 41.6729 79.1784 41.0395 78.3867 40.5915C77.595 40.1474 76.7377 39.9235 75.8109 39.9235C74.1967 39.9235 72.8952 40.4371 71.9105 41.4643C70.9257 42.4916 70.4352 43.7698 70.4352 45.2991C70.4352 46.8284 70.9257 48.1105 71.9105 49.1339C72.8952 50.1611 74.1967 50.6747 75.8109 50.6747C76.7377 50.6747 77.595 50.4508 78.3867 50.0066C79.1784 49.5625 79.7654 48.9253 80.1554 48.0989H84.5231C84.0365 50.0337 82.963 51.5938 81.3063 52.7833C79.6495 53.9689 77.819 54.5636 75.8148 54.5636Z" fill="white"/>
<path d="M91.7949 54.5365C90.1614 54.5365 88.7789 53.8878 87.6435 52.5941C86.5081 51.3003 85.9404 49.7518 85.9404 47.9483C85.9404 46.1448 86.5081 44.6001 87.6435 43.3025C88.7789 42.0088 90.1614 41.36 91.7949 41.36C93.2431 41.36 94.3862 41.8737 95.2281 42.9009V41.6381H99.0397V54.2585H95.2281V52.9957C94.3862 54.0229 93.2431 54.5365 91.7949 54.5365ZM90.5707 50.1959C91.0998 50.7867 91.7949 51.0802 92.6523 51.0802C93.5096 51.0802 94.2047 50.7867 94.7338 50.1959C95.2628 49.6089 95.5293 48.8597 95.5293 47.9483C95.5293 47.0369 95.2628 46.2916 94.7338 45.7007C94.2047 45.1099 93.5096 44.8164 92.6523 44.8164C91.7949 44.8164 91.0998 45.1099 90.5707 45.7007C90.0417 46.2916 89.7752 47.0369 89.7752 47.9483C89.7752 48.8597 90.0417 49.605 90.5707 50.1959Z" fill="white"/>
<path d="M102.168 54.2585V41.6381H105.979V42.9241C106.701 41.8814 107.872 41.36 109.49 41.36C111.019 41.36 112.22 41.8737 113.085 42.9009C113.95 43.9281 114.386 45.2836 114.386 46.9635V54.2585H110.575V47.62C110.575 45.7509 109.891 44.8164 108.528 44.8164C107.771 44.8164 107.157 45.0944 106.686 45.6505C106.215 46.2066 105.979 47.0292 105.979 48.1221V54.2546H102.168V54.2585Z" fill="white"/>
<path d="M122.461 54.5366C120.778 54.5366 119.395 54.1195 118.31 53.2892C117.225 52.455 116.646 51.4085 116.58 50.1457H120.592C120.627 50.6323 120.828 51.0069 121.199 51.2695C121.569 51.5321 122.033 51.6595 122.585 51.6595C123.527 51.6595 123.999 51.3892 123.999 50.8524C123.999 50.5821 123.894 50.3774 123.682 50.2345C123.469 50.0916 123.095 49.9449 122.558 49.7943L120.009 49.1377C117.889 48.5816 116.827 47.2609 116.827 45.1755C116.827 44.0479 117.298 43.1288 118.241 42.4259C119.183 41.7231 120.469 41.3639 122.102 41.3639C123.551 41.3639 124.755 41.7231 125.725 42.4375C126.69 43.1519 127.227 44.1599 127.327 45.4536H123.489C123.338 44.6812 122.848 44.2912 122.025 44.2912C121.203 44.2912 120.739 44.5615 120.739 45.0983C120.739 45.5694 121.168 45.8977 122.025 46.0831L124.323 46.6894C125.586 47.0253 126.493 47.5158 127.049 48.153C127.605 48.7902 127.883 49.6243 127.883 50.6516C127.883 51.814 127.378 52.7485 126.37 53.4668C125.362 54.1851 124.056 54.5404 122.458 54.5404L122.461 54.5366Z" fill="white"/>
<path d="M132.325 53.8646C131.973 54.216 131.552 54.3898 131.062 54.3898C130.571 54.3898 130.15 54.2122 129.799 53.8646C129.448 53.5132 129.27 53.0923 129.27 52.6018C129.27 52.1114 129.448 51.6904 129.799 51.339C130.15 50.9876 130.571 50.8138 131.062 50.8138C131.552 50.8138 131.973 50.9914 132.325 51.339C132.676 51.6904 132.85 52.1114 132.85 52.6018C132.85 53.0923 132.672 53.5132 132.325 53.8646Z" fill="white"/>
<path d="M135.746 44.7623C135.321 44.7623 134.955 44.6078 134.642 44.3027C134.329 43.9977 134.174 43.6269 134.174 43.1905C134.174 42.7541 134.333 42.3873 134.642 42.0783C134.955 41.7732 135.321 41.6188 135.746 41.6188C136.19 41.6188 136.569 41.7732 136.874 42.0783C137.179 42.3873 137.333 42.7541 137.333 43.1905C137.333 43.6269 137.179 43.9938 136.874 44.3027C136.569 44.6117 136.19 44.7623 135.746 44.7623ZM134.491 54.2585V45.8977H137.017V54.2585H134.491Z" fill="white"/>
<path d="M146.076 53.181C145.219 54.0229 144.18 54.4438 142.968 54.4438C141.755 54.4438 140.716 54.0229 139.859 53.181C139.002 52.3392 138.573 51.3042 138.573 50.08C138.573 48.8558 139.002 47.8208 139.859 46.979C140.716 46.1371 141.751 45.7162 142.968 45.7162C144.184 45.7162 145.219 46.1371 146.076 46.979C146.934 47.8208 147.362 48.8558 147.362 50.08C147.362 51.3042 146.934 52.3392 146.076 53.181ZM141.635 51.532C141.987 51.8989 142.431 52.0843 142.964 52.0843C143.497 52.0843 143.941 51.8989 144.292 51.532C144.644 51.1652 144.818 50.6786 144.818 50.0761C144.818 49.4737 144.644 48.9871 144.292 48.6202C143.941 48.2534 143.497 48.068 142.964 48.068C142.431 48.068 141.987 48.2534 141.635 48.6202C141.284 48.9871 141.11 49.4737 141.11 50.0761C141.11 50.6786 141.288 51.1652 141.635 51.532Z" fill="white"/>
<defs>
<linearGradient id="paint0_linear_1_304" x1="6.60665" y1="-2.84229" x2="53.7207" y2="62.3644" gradientUnits="userSpaceOnUse">
<stop stop-color="#FFA415"/>
<stop offset="0.39" stop-color="#FF8915"/>
<stop offset="1" stop-color="#FF5915"/>
</linearGradient>
</defs>
</svg>
