<svg width="30" height="30" viewBox="0 0 30 30" fill="none" xmlns="http://www.w3.org/2000/svg">
<path d="M15 29.7216C23.2192 29.7216 29.8822 23.0682 29.8822 14.8608C29.8822 6.65341 23.2192 0 15 0C6.7807 0 0.117676 6.65341 0.117676 14.8608C0.117676 23.0682 6.7807 29.7216 15 29.7216Z" fill="#F6851B" fill-opacity="0.2"/>
<path d="M21.3901 8.24176L15.8628 12.3879L16.8894 9.94174L21.3901 8.24176Z" fill="#E2761B" stroke="#E2761B" stroke-linecap="round" stroke-linejoin="round"/>
<path d="M8.64307 8.24176L14.1204 12.4272L13.1437 9.94174L8.64307 8.24176Z" fill="#E4761B" stroke="#E4761B" stroke-linecap="round" stroke-linejoin="round"/>
<path d="M19.4037 17.8526L17.9331 20.1305L21.0797 21.0057L21.9787 17.9031L19.4037 17.8526Z" fill="#E4761B" stroke="#E4761B" stroke-linecap="round" stroke-linejoin="round"/>
<path d="M8.06055 17.9031L8.95399 21.0057L12.1006 20.1305L10.6355 17.8526L8.06055 17.9031Z" fill="#E4761B" stroke="#E4761B" stroke-linecap="round" stroke-linejoin="round"/>
<path d="M11.9286 14.0038L11.0518 15.3447L14.1706 15.4849L14.0652 12.0906L11.9286 14.0038Z" fill="#E4761B" stroke="#E4761B" stroke-linecap="round" stroke-linejoin="round"/>
<path d="M18.1048 14.0038L15.9349 12.0513L15.8628 15.4849L18.9816 15.3447L18.1048 14.0038Z" fill="#E4761B" stroke="#E4761B" stroke-linecap="round" stroke-linejoin="round"/>
<path d="M12.1006 20.1304L13.9819 19.2047L12.3614 17.9255L12.1006 20.1304Z" fill="#E4761B" stroke="#E4761B" stroke-linecap="round" stroke-linejoin="round"/>
<path d="M16.0518 19.2047L17.933 20.1304L17.6722 17.9255L16.0518 19.2047Z" fill="#E4761B" stroke="#E4761B" stroke-linecap="round" stroke-linejoin="round"/>
<path d="M17.933 20.1304L16.0518 19.2047L16.2016 20.4446L16.1849 20.9664L17.933 20.1304Z" fill="#D7C1B3" stroke="#D7C1B3" stroke-linecap="round" stroke-linejoin="round"/>
<path d="M12.1006 20.1304L13.8487 20.9664L13.8376 20.4446L13.9819 19.2047L12.1006 20.1304Z" fill="#D7C1B3" stroke="#D7C1B3" stroke-linecap="round" stroke-linejoin="round"/>
<path d="M13.8819 17.1064L12.3169 16.6407L13.4213 16.1302L13.8819 17.1064Z" fill="#233447" stroke="#233447" stroke-linecap="round" stroke-linejoin="round"/>
<path d="M16.1514 17.1064L16.612 16.1302L17.7219 16.6407L16.1514 17.1064Z" fill="#233447" stroke="#233447" stroke-linecap="round" stroke-linejoin="round"/>
<path d="M12.1003 20.1305L12.3723 17.8526L10.6353 17.9031L12.1003 20.1305Z" fill="#CD6116" stroke="#CD6116" stroke-linecap="round" stroke-linejoin="round"/>
<path d="M17.6611 17.8526L17.9331 20.1305L19.4037 17.9031L17.6611 17.8526Z" fill="#CD6116" stroke="#CD6116" stroke-linecap="round" stroke-linejoin="round"/>
<path d="M18.9816 15.3447L15.8628 15.4849L16.1514 17.1064L16.612 16.1301L17.7219 16.6407L18.9816 15.3447Z" fill="#CD6116" stroke="#CD6116" stroke-linecap="round" stroke-linejoin="round"/>
<path d="M12.317 16.6407L13.4214 16.1301L13.882 17.1064L14.1706 15.4849L11.0518 15.3447L12.317 16.6407Z" fill="#CD6116" stroke="#CD6116" stroke-linecap="round" stroke-linejoin="round"/>
<path d="M11.0518 15.3447L12.3615 17.9255L12.317 16.6407L11.0518 15.3447Z" fill="#E4751F" stroke="#E4751F" stroke-linecap="round" stroke-linejoin="round"/>
<path d="M17.7223 16.6407L17.6724 17.9255L18.9821 15.3447L17.7223 16.6407Z" fill="#E4751F" stroke="#E4751F" stroke-linecap="round" stroke-linejoin="round"/>
<path d="M14.1704 15.4849L13.8818 17.1064L14.2481 19.0196L14.3258 16.5004L14.1704 15.4849Z" fill="#E4751F" stroke="#E4751F" stroke-linecap="round" stroke-linejoin="round"/>
<path d="M15.8632 15.4849L15.7134 16.4948L15.7855 19.0196L16.1518 17.1064L15.8632 15.4849Z" fill="#E4751F" stroke="#E4751F" stroke-linecap="round" stroke-linejoin="round"/>
<path d="M16.1514 17.1064L15.7852 19.0196L16.0515 19.2047L17.672 17.9255L17.722 16.6407L16.1514 17.1064Z" fill="#F6851B" stroke="#F6851B" stroke-linecap="round" stroke-linejoin="round"/>
<path d="M12.3169 16.6407L12.3613 17.9255L13.9818 19.2047L14.2481 19.0196L13.8819 17.1064L12.3169 16.6407Z" fill="#F6851B" stroke="#F6851B" stroke-linecap="round" stroke-linejoin="round"/>
<path d="M16.1851 20.9664L16.2017 20.4447L16.063 20.3212H13.9708L13.8376 20.4447L13.8487 20.9664L12.1006 20.1305L12.711 20.6354L13.9541 21.5051H16.0796L17.3227 20.6354L17.9331 20.1305L16.1851 20.9664Z" fill="#C0AD9E" stroke="#C0AD9E" stroke-linecap="round" stroke-linejoin="round"/>
<path d="M16.0517 19.2048L15.7853 19.0196H14.2481L13.9817 19.2048L13.8374 20.4447L13.9706 20.3213H16.0628L16.2015 20.4447L16.0517 19.2048Z" fill="#161616" stroke="#161616" stroke-linecap="round" stroke-linejoin="round"/>
<path d="M21.6235 12.6572L22.0896 10.3681L21.3904 8.24176L16.0518 12.2477L18.1051 14.0038L21.0075 14.8622L21.6457 14.1048L21.3682 13.9028L21.8122 13.4932L21.4737 13.2239L21.9176 12.8817L21.6235 12.6572Z" fill="#763D16" stroke="#763D16" stroke-linecap="round" stroke-linejoin="round"/>
<path d="M7.94385 10.3681L8.41557 12.6572L8.11589 12.8817L8.55986 13.2239L8.22135 13.4932L8.66528 13.9028L8.38781 14.1048L9.02603 14.8622L11.9284 14.0038L13.9818 12.2477L8.64311 8.24176L7.94385 10.3681Z" fill="#763D16" stroke="#763D16" stroke-linecap="round" stroke-linejoin="round"/>
<path d="M21.0076 14.8622L18.1052 14.0037L18.9821 15.3447L17.6724 17.9255L19.4038 17.9031H21.9788L21.0076 14.8622Z" fill="#F6851B" stroke="#F6851B" stroke-linecap="round" stroke-linejoin="round"/>
<path d="M11.9286 14.0037L9.02616 14.8622L8.06055 17.9031H10.6355L12.3614 17.9255L11.0517 15.3447L11.9286 14.0037Z" fill="#F6851B" stroke="#F6851B" stroke-linecap="round" stroke-linejoin="round"/>
<path d="M15.8628 15.4849L16.0515 12.2477L16.8895 9.94171H13.1436L13.9815 12.2477L14.1702 15.4849L14.2424 16.506L14.2479 19.0195H15.7852L15.7907 16.506L15.8628 15.4849Z" fill="#F6851B" stroke="#F6851B" stroke-linecap="round" stroke-linejoin="round"/>
</svg>
