<svg width="52" height="60" viewBox="0 0 52 60" fill="none" xmlns="http://www.w3.org/2000/svg">
<g clip-path="url(#clip0_255_531)">
<path d="M12.3262 30.665C11.1708 26.9379 8.50805 18.3266 8.50805 18.1212L5.76855 19.6672V41.6604L8.50805 43.2357V27.9651L13.317 46.0066L15.6489 47.3481V13.3958L12.3554 15.2043L12.3262 30.665V30.665Z" fill="#F77614"/>
<path d="M26.0034 10.5662L33.7773 15.0876L35.5552 12.3162L26.0034 6.71582L18.4468 11.2372V48.8068L21.5364 50.8481V31.8889H33.0488V28.0678H21.5364V13.1039L26.0034 10.5662Z" fill="#F77614"/>
<path d="M35.3809 15.9627L39.4901 18.6463V46.1521L42.9006 44.2562V20.5129L47.1263 23.4005V19.7838L37.071 13.425L35.3809 15.9627Z" fill="#F77614"/>
<path d="M25.9964 0L0 15.0877V44.9857L26.04 60.0005L52 44.9785V15.08L25.9964 0ZM3.0872 43.2352V16.7211L25.9964 3.44194L48.9133 16.7139V43.228L26.0405 56.5L3.0872 43.2352Z" fill="#F77614"/>
</g>
<defs>
<clipPath id="clip0_255_531">
<rect width="52" height="60" fill="white"/>
</clipPath>
</defs>
</svg>
