<svg width="28" height="27" viewBox="0 0 28 27" fill="none" xmlns="http://www.w3.org/2000/svg">
<path fill-rule="evenodd" clip-rule="evenodd" d="M28 13.7024C28 20.9276 21.732 26.7848 14 26.7848C6.26801 26.7848 0 20.9276 0 13.7024C0 6.47728 6.26801 0.620117 14 0.620117C21.732 0.620117 28 6.47728 28 13.7024ZM14.5017 10.278C13.14 10.8072 10.4185 11.9026 6.33719 13.5642C5.67445 13.8105 5.32728 14.0514 5.29568 14.287C5.24226 14.6851 5.77581 14.8419 6.50236 15.0554C6.60119 15.0844 6.70359 15.1145 6.80857 15.1464C7.52339 15.3635 8.48494 15.6176 8.98482 15.6276C9.43825 15.6368 9.94433 15.4621 10.5031 15.1036C14.3163 12.6983 16.2848 11.4825 16.4083 11.4563C16.4955 11.4378 16.6163 11.4145 16.6982 11.4825C16.7801 11.5505 16.772 11.6793 16.7633 11.7138C16.7105 11.9244 14.6161 13.7439 13.5323 14.6854C13.1944 14.979 12.9547 15.1872 12.9057 15.2347C12.796 15.3413 12.6841 15.442 12.5766 15.5389C11.9125 16.1371 11.4145 16.5857 12.6042 17.3183C13.1759 17.6703 13.6333 17.9614 14.0897 18.2518C14.5882 18.569 15.0853 18.8854 15.7285 19.2794C15.8924 19.3798 16.0489 19.484 16.2014 19.5856C16.7814 19.972 17.3025 20.3192 17.9463 20.2638C18.3204 20.2316 18.7069 19.9029 18.9031 18.9226C19.3669 16.6057 20.2785 11.5857 20.4892 9.51704C20.5077 9.33581 20.4845 9.10386 20.4658 9.00204C20.4472 8.90022 20.4082 8.75514 20.2666 8.64775C20.0988 8.52057 19.8399 8.49375 19.7241 8.49565C19.1975 8.50432 18.3896 8.76682 14.5017 10.278Z" fill="#6E7191"/>
</svg>
