<svg width="18" height="18" viewBox="0 0 18 18" fill="none" xmlns="http://www.w3.org/2000/svg">
<path d="M5.66064 16.313C12.4531 16.313 16.1683 10.6855 16.1683 5.80533C16.1683 5.64549 16.1683 5.48637 16.1575 5.32797C16.8803 4.80519 17.5042 4.15788 18 3.41637C17.326 3.71517 16.611 3.91104 15.8789 3.99741C16.6499 3.53593 17.2269 2.81 17.5025 1.95477C16.7776 2.38498 15.9845 2.68814 15.1574 2.85117C14.6006 2.2591 13.8642 1.86705 13.0621 1.73568C12.2601 1.60431 11.4371 1.74095 10.7205 2.12446C10.0039 2.50796 9.43367 3.11695 9.09806 3.85718C8.76245 4.59741 8.68016 5.42762 8.86392 6.21933C7.39567 6.14568 5.95932 5.7641 4.64809 5.09937C3.33686 4.43464 2.18007 3.50161 1.2528 2.36085C0.780546 3.17385 0.635904 4.13627 0.848325 5.05217C1.06075 5.96806 1.61426 6.76856 2.39616 7.29069C1.80842 7.27347 1.23349 7.11491 0.72 6.82845V6.87525C0.720233 7.72789 1.01539 8.5542 1.5554 9.21402C2.09542 9.87385 2.84705 10.3266 3.6828 10.4954C3.13911 10.6437 2.56866 10.6654 2.01528 10.5588C2.25136 11.2925 2.71082 11.9341 3.32943 12.394C3.94804 12.8538 4.69487 13.1088 5.46552 13.1234C4.69983 13.7253 3.82299 14.1703 2.88516 14.4329C1.94733 14.6956 0.966911 14.7707 0 14.6541C1.68887 15.7379 3.65394 16.3128 5.66064 16.3101" fill="#1DA1F2"/>
</svg>
