<svg width="18" height="18" viewBox="0 0 18 18" fill="none" xmlns="http://www.w3.org/2000/svg">
<g clip-path="url(#clip0_184_85)">
<path d="M17.6417 4.63912C17.5399 4.25618 17.3394 3.90668 17.0601 3.62561C16.7808 3.34454 16.4326 3.14174 16.0503 3.03753C14.6431 2.65912 9.01807 2.65912 9.01807 2.65912C9.01807 2.65912 3.39307 2.65912 1.98579 3.03753C1.60351 3.14174 1.25531 3.34454 0.976032 3.62561C0.696753 3.90668 0.496196 4.25618 0.39443 4.63912C0.0180665 6.05253 0.0180664 9.00003 0.0180664 9.00003C0.0180664 9.00003 0.0180665 11.9475 0.39443 13.3609C0.496196 13.7439 0.696753 14.0934 0.976032 14.3744C1.25531 14.6555 1.60351 14.8583 1.98579 14.9625C3.39307 15.3409 9.01807 15.3409 9.01807 15.3409C9.01807 15.3409 14.6431 15.3409 16.0503 14.9625C16.4326 14.8583 16.7808 14.6555 17.0601 14.3744C17.3394 14.0934 17.5399 13.7439 17.6417 13.3609C18.0181 11.9475 18.0181 9.00003 18.0181 9.00003C18.0181 9.00003 18.0181 6.05253 17.6417 4.63912Z" fill="#FF0302"/>
<path d="M7.17676 11.6765V6.32355L11.8813 9.00002L7.17676 11.6765Z" fill="#FEFEFE"/>
</g>
<defs>
<clipPath id="clip0_184_85">
<rect width="18" height="18" fill="white"/>
</clipPath>
</defs>
</svg>
